<svg width="61" height="61" viewBox="0 0 61 61" fill="none" xmlns="http://www.w3.org/2000/svg">
<path d="M39.1244 0C45.1333 0 48.1377 0 51.4092 1.00148C54.9478 2.27002 57.7519 5.07416 59.0205 8.61271C60.0887 11.8842 60.0887 14.9554 60.0887 20.9643V39.1244C60.0887 45.1333 60.0887 48.1377 59.0872 51.4092C57.8187 54.9478 55.0145 57.7519 51.476 59.0205C48.2045 60.0887 45.1333 60.0887 39.1244 60.0887H20.9643C14.9554 60.0887 11.951 60.0887 8.67948 59.0872C5.14092 57.7519 2.33678 55.0145 1.06824 51.4092C-7.95903e-08 48.2045 0 45.2001 0 39.1244V20.9643C0 14.9554 0 11.951 1.00148 8.67948C2.33678 5.14092 5.14092 2.33678 8.67948 1.06824C11.8842 -7.95903e-08 14.9554 0 20.9643 0H39.1244Z" fill="url(#paint0_linear)"/>
<path d="M49.3395 43.0636C49.2727 43.0636 49.1392 43.1303 49.0724 43.1303H11.0163C10.9495 43.1303 10.816 43.1303 10.7492 43.0636L22.6334 31.1794L25.1705 33.7832C27.9079 36.5874 32.2476 36.5874 34.985 33.7832L37.5221 31.1794L49.3395 43.0636ZM50.0739 41.795V18.2269C50.0739 18.0934 50.0739 17.9598 50.0072 17.8931C49.9404 18.0266 38.1897 30.1779 38.1897 30.1779L50.0739 42.0621V41.795ZM10.0148 41.8618V18.3604C10.0148 18.2269 10.0148 18.0934 10.0815 18.0266C10.1483 18.1601 21.899 30.3114 21.899 30.3114L10.0815 42.1289C10.0148 42.0621 10.0148 41.9286 10.0148 41.8618ZM49.4063 17.0919L34.2506 32.5814C31.9138 34.9182 28.1749 34.9182 25.9049 32.5814L10.7492 17.0919C10.6824 17.0251 49.4063 17.0919 49.4063 17.0919Z" fill="white"/>
<defs>
<linearGradient id="paint0_linear" x1="30.043" y1="0.0186943" x2="30.043" y2="60.0874" gradientUnits="userSpaceOnUse">
<stop stop-color="#1E51EE"/>
<stop offset="1" stop-color="#19E6FF"/>
</linearGradient>
</defs>
</svg>
