<svg xmlns="http://www.w3.org/2000/svg" width="21.11mm" height="21.11mm" viewBox="0 0 59.84 59.84">
  <defs>
    <style>
      .cls-1 {
        fill: #1a1a18;
        fill-rule: evenodd;
      }
    </style>
  </defs>
  <title>half_car</title>
  <g id="Слой_2" data-name="Слой 2">
    <g id="Слой_1-2" data-name="Слой 1">
      <path class="cls-1" d="M47.82,46.33V44.4h.39a16.93,16.93,0,0,0-.39-2.69V36.4a18.27,18.27,0,0,1,2.32,8h7.77V40.53H51.36l-.53-2.12a17.36,17.36,0,0,0-3-6.32v-3a19.41,19.41,0,0,1,4.88,8.82l.17.66h5V25.09H54.05V23.16h3.86V21.23H47.82V19.3H57.91V5.79H47.82V3.86H57.91V1.93H47.82V0h12V46.33Zm-8.68,6.74a10.59,10.59,0,0,0,0-15.42v3a8.67,8.67,0,0,1,1.34,3.75H39.14v1.93h1.34a8.62,8.62,0,0,1-1.34,3.74v3ZM47.82,0V1.93h-.38a10.65,10.65,0,0,0-7.7,3.3l-.6.64V3.14A12.58,12.58,0,0,1,47.44,0Zm0,3.86h-.88a6.78,6.78,0,0,0-5,2.19L39.14,9.13V12l4.25-4.63a4.8,4.8,0,0,1,3.55-1.57h.88V3.86Zm0,15.44v1.93H39.14V18.88a2.88,2.88,0,0,0,1.39-2.47,1,1,0,0,0-1-1h-.43V13.51h.43a2.9,2.9,0,0,1,2.9,2.9,4.73,4.73,0,0,1-1,2.89Zm0,9.82v3a17.49,17.49,0,0,0-8.68-6.16v-2a19.47,19.47,0,0,1,8.68,5.21Zm0,7.28v5.31a16.43,16.43,0,0,0-8.68-11V28.54a18.37,18.37,0,0,1,8.68,7.86Zm0,8v1.93H46.28a14.52,14.52,0,0,1-7.14,11.53V55.57a12.53,12.53,0,0,0,0-20.41v-2.3A14.53,14.53,0,0,1,46.28,44.4ZM36.65,54.83a10.89,10.89,0,0,0,2.49-1.76v-3a8.79,8.79,0,0,1-2.49,2.52v2.24Zm2.49-17.18a10.89,10.89,0,0,0-2.49-1.76v2.24a8.79,8.79,0,0,1,2.49,2.52v-3Zm0-34.51V5.87L36.65,8.49V5.69l1.69-1.78h0c.26-.26.52-.52.8-.76Zm0,6V12l-1.4,1.52h1.4v1.93H36.65V11.85l2.49-2.72Zm0,9.75v2.35H36.65V19.3h1a2.85,2.85,0,0,0,1.5-.42Zm0,5v2a17.37,17.37,0,0,0-2.49-.6v-2a20.81,20.81,0,0,1,2.49.54Zm0,4.63v2.13a16.81,16.81,0,0,0-2.49-1v-2a17.93,17.93,0,0,1,2.49.88Zm0,4.32v2.3a12.39,12.39,0,0,0-2.49-1.39V31.7a14.85,14.85,0,0,1,2.49,1.16Zm0,11.54v1.93H36.65V44.4Zm0,11.17v2.29A14.85,14.85,0,0,1,36.65,59V57A12.86,12.86,0,0,0,39.14,55.57ZM31.85,56a10.65,10.65,0,0,0,4.8-1.15V52.59A8.68,8.68,0,0,1,32.81,54V48.08a2.9,2.9,0,0,0,1.76-1.75h2.08V44.4H34.57a2.9,2.9,0,0,0-1.76-1.76V36.73a8.68,8.68,0,0,1,3.84,1.4V35.89a10.65,10.65,0,0,0-4.8-1.15V44.4a1,1,0,0,1,0,1.93V56Zm4.8-50.29v2.8l-4.8,5v-2.8l4.8-5Zm0,6.16-1.6,1.75a2.89,2.89,0,0,0-2.24,2.81v8.68h1a17.1,17.1,0,0,1,2.87.24v-2c-.63-.09-1.26-.15-1.91-.18v-2h1.91V19.3H34.74V16.41a1,1,0,0,1,1-1h.94V11.85Zm0,15.81v2a16.54,16.54,0,0,0-4.8-.72V27a18.53,18.53,0,0,1,4.8.64Zm0,4v2.07a12.39,12.39,0,0,0-4.8-1V30.88a14.44,14.44,0,0,1,4.8.82Zm0,25.25V59a14.44,14.44,0,0,1-4.8.82V57.91A12.39,12.39,0,0,0,36.65,57Zm-4.8-22.21a10.59,10.59,0,0,0-4.8,1.15v2.24a8.65,8.65,0,0,1,3.83-1.4h0v5.91a2.9,2.9,0,0,0-1.75,1.76H27.05v1.93h2.08a2.91,2.91,0,0,0,1.75,1.75V54a8.65,8.65,0,0,1-3.83-1.4v2.24A10.59,10.59,0,0,0,31.85,56V46.33a1,1,0,1,1,0-1.93V34.74Zm0-24v2.8l-4.8,5.05v-2.8l4.8-5Zm0,16.28V29a16.21,16.21,0,0,0-4.8.72v-2a18.53,18.53,0,0,1,4.8-.64Zm0,3.86v1.93a12.39,12.39,0,0,0-4.8,1V31.7a14.4,14.4,0,0,1,4.8-.82Zm0,27v1.93a14.4,14.4,0,0,1-4.8-.82V57A12.39,12.39,0,0,0,31.85,57.91Zm-4.8-22a10.61,10.61,0,0,0,0,18.94V52.59a8.65,8.65,0,0,1-3.83-6.26h3.83V44.4H23.22a8.65,8.65,0,0,1,3.83-6.27V35.89Zm0-20.1v2.8l-2.46,2.59L11.37,23a8.67,8.67,0,0,0-3.74,1.45V22.18a10.59,10.59,0,0,1,3.48-1.11l12.55-1.71,3.39-3.57Zm0,11.87v2A16.44,16.44,0,0,0,15.49,44.4h1.93a14.52,14.52,0,0,1,9.63-12.7v2.07a12.54,12.54,0,0,0,0,23.18V59a14.52,14.52,0,0,1-9.63-12.69H7.63V44.4h5.93a18.39,18.39,0,0,1,.62-3.87H7.63V38.6h7.19A18.45,18.45,0,0,1,27.05,27.66ZM7.63,34.74h6.06l-.62-3.68a4.81,4.81,0,0,0-4.76-4H7.63V29h.68a2.9,2.9,0,0,1,2.86,2.42l.24,1.44H7.63Zm0-12.56v2.25A8.8,8.8,0,0,0,5.17,27H7.63V29H4.28a8.58,8.58,0,0,0-.42,2.64v1.22H7.63v1.93H3.86V38.6H7.63v1.93H2.9a1,1,0,0,0-1,1v1.93h0a1,1,0,0,0,1,1H7.63v1.93H2.9A2.9,2.9,0,0,1,0,43.43V41.5a2.89,2.89,0,0,1,1.93-2.72V31.59A10.66,10.66,0,0,1,7.63,22.18Z"/>
    </g>
  </g>
</svg>
