<svg xmlns="http://www.w3.org/2000/svg" width="28.12mm" height="28.12mm" viewBox="0 0 79.7 79.7">
  <defs>
    <style>
      .cls-1 {
        fill: #fc0;
        fill-rule: evenodd;
      }
    </style>
  </defs>
  <title>half_car_yellow</title>
  <g id="Слой_2" data-name="Слой 2">
    <g id="Слой_1-2" data-name="Слой 1">
      <path class="cls-1" d="M42.42,46.28A14.14,14.14,0,1,0,56.56,60.42,14.15,14.15,0,0,0,42.42,46.28ZM53.91,59.13H46a3.84,3.84,0,0,0-2.33-2.33V48.92a11.59,11.59,0,0,1,10.2,10.21ZM42.42,61.7a1.29,1.29,0,0,1,0-2.57,1.29,1.29,0,1,1,0,2.57ZM41.14,48.92V56.8a3.86,3.86,0,0,0-2.34,2.33H30.93A11.59,11.59,0,0,1,41.14,48.92ZM30.93,61.7H38.8A3.87,3.87,0,0,0,41.14,64v7.87A11.57,11.57,0,0,1,30.93,61.7ZM43.71,71.91V64A3.86,3.86,0,0,0,46,61.7h7.87a11.57,11.57,0,0,1-10.2,10.21ZM51.07,5.2h0A16.79,16.79,0,0,1,63.18,0H79.7V61.7H61.64a19.26,19.26,0,0,1-38.44,0H3.86A3.86,3.86,0,0,1,0,57.85V55.28a3.85,3.85,0,0,1,2.57-3.62V42.07a14.2,14.2,0,0,1,12.23-14l16.72-2.28L51.07,5.2ZM5.7,38.57a11.3,11.3,0,0,0-.56,3.5v1.64H15.19l-.32-1.92a3.84,3.84,0,0,0-3.8-3.22ZM2.57,57.85h0a1.28,1.28,0,0,0,1.29,1.28h14.2A24.84,24.84,0,0,1,18.88,54h-15a1.29,1.29,0,0,0-1.29,1.29v2.57ZM42.42,41.14a19.29,19.29,0,0,0-19.22,18H20.63a21.83,21.83,0,0,1,43.58,0H61.64a19.29,19.29,0,0,0-19.22-18Zm0,36A16.71,16.71,0,1,1,59.13,60.42,16.73,16.73,0,0,1,42.42,77.13ZM52.71,18a3.86,3.86,0,0,1,3.85,3.85,6.34,6.34,0,0,1-1.32,3.86H77.13v-18H62.53A6.42,6.42,0,0,0,57.79,9.8L50.27,18Zm-5.15,2.57a1.28,1.28,0,0,0-1.28,1.28v3.86h3.85A3.86,3.86,0,0,0,54,21.85a1.29,1.29,0,0,0-1.28-1.28Zm2.57,7.71h27v2.57H72v2.57h5.14v18H70.42l-.22-.89A26,26,0,0,0,46.28,30.88v-2.6Zm27-23.14H62.53a9,9,0,0,0-6.64,2.92l-9.21,10a3.85,3.85,0,0,0-3,3.74V33.42H45A23.36,23.36,0,0,1,67.7,51.16L68.41,54h8.72v5.14H66.78a24.39,24.39,0,0,0-47-7.71H5.14V46.28H18.23l-.82-4.91A6.41,6.41,0,0,0,11.07,36H6.89a11.58,11.58,0,0,1,8.26-5.38l17.61-2.4L52.93,7a14.23,14.23,0,0,1,10.25-4.4H77.13Z"/>
    </g>
  </g>
</svg>
