<svg xmlns="http://www.w3.org/2000/svg" width="15.64mm" height="15.64mm" viewBox="0 0 44.33 44.33">
  <defs>
    <style>
      .cls-1, .cls-3 {
        fill: #fc0;
      }

      .cls-2, .cls-4 {
        fill: #3b3b3a;
      }

      .cls-2, .cls-3 {
        fill-rule: evenodd;
      }
    </style>
  </defs>
  <title>instagram_icon</title>
  <g id="Слой_2" data-name="Слой 2">
    <g id="Слой_1-2" data-name="Слой 1">
      <g>
        <rect class="cls-1" width="44.33" height="44.33"/>
        <path class="cls-2" d="M22.16,5.13C15.18,5.13,8.56,4.5,6,11c-1,2.69-.89,6.17-.89,11.16,0,4.38-.14,8.5.89,11.16,2.53,6.5,9.21,5.88,16.14,5.88,6.68,0,13.58.69,16.14-5.88,1.05-2.71.89-6.15.89-11.16,0-6.65.37-10.95-2.86-14.18S28.64,5.13,22.16,5.13Z"/>
        <path class="cls-3" d="M20.64,8.2C35.2,8.17,37.05,6.55,36,29c-.37,8-6.42,7.08-13.86,7.08-13.58,0-14-.39-14-14,0-13.73,1.08-13.95,12.44-14Z"/>
        <path class="cls-2" d="M22.16,13.41a8.75,8.75,0,1,0,8.75,8.75A8.74,8.74,0,0,0,22.16,13.41Z"/>
        <circle class="cls-4" cx="31.26" cy="13.07" r="2.04"/>
        <path class="cls-3" d="M22.16,16.48c7.51,0,7.52,11.36,0,11.36S14.65,16.48,22.16,16.48Z"/>
      </g>
    </g>
  </g>
</svg>
