<svg xmlns="http://www.w3.org/2000/svg" width="11.72mm" height="11.72mm" viewBox="0 0 33.23 33.23">
  <defs>
    <style>
      .cls-1 {
        fill: #3b3b3a;
        fill-rule: evenodd;
      }
    </style>
  </defs>
  <title>Ресурс 2</title>
  <g id="Слой_2" data-name="Слой 2">
    <g id="Слой_1-2" data-name="Слой 1">
      <path class="cls-1" d="M0,33.23H33.23V0H0V33.23ZM16.61,3.84h0c4.86,0,8.17-.31,10.62,2.14s2.15,5.64,2.15,10.63c0,3.76.11,6.33-.67,8.36-1.92,4.93-7.09,4.41-12.1,4.41-5.19,0-10.2.47-12.09-4.41-.78-2-.67-5.08-.67-8.36,0-3.74-.12-6.35.67-8.36,1.89-4.87,6.86-4.41,12.09-4.41Zm-1.14,2.3c10.91,0,12.3-1.23,11.53,15.63-.27,6-4.81,5.3-10.39,5.3-10.17,0-10.46-.29-10.46-10.47S7,6.15,15.47,6.14Zm8,2.12A1.54,1.54,0,1,1,21.9,9.79a1.54,1.54,0,0,1,1.53-1.53Zm-6.82,1.79a6.56,6.56,0,1,1-6.55,6.56,6.56,6.56,0,0,1,6.55-6.56Zm0,2.3c5.63,0,5.64,8.52,0,8.52S11,12.35,16.61,12.35Z"/>
    </g>
  </g>
</svg>
