<svg xmlns="http://www.w3.org/2000/svg" width="28.38mm" height="28.38mm" viewBox="0 0 80.44 80.44">
  <defs>
    <style>
      .cls-1 {
        fill: #3b3b3a;
        fill-rule: evenodd;
      }
    </style>
  </defs>
  <title>Ресурс 1</title>
  <g id="Слой_2" data-name="Слой 2">
    <g id="Слой_1-2" data-name="Слой 1">
      <g>
        <path class="cls-1" d="M46.18,53.62a8.05,8.05,0,0,0,2.08-5.36v-.58a6.7,6.7,0,0,0-2.68-12.82h-15a2.43,2.43,0,0,0-2.42,2.41v4.29a6.7,6.7,0,0,0,4,6.12v.58a8.05,8.05,0,0,0,2.08,5.36A9.39,9.39,0,0,0,25.47,63V79.1a1.34,1.34,0,0,0,2.68,0V63a6.71,6.71,0,0,1,6.71-6.71h1.56a4,4,0,0,0,.93,4.16L36.2,69.55a1.3,1.3,0,0,0,.21.9l2.68,4a1.35,1.35,0,0,0,2.23,0l2.68-4a1.36,1.36,0,0,0,.21-.9l-1.14-9.1A4,4,0,0,0,44,56.3h1.57A6.71,6.71,0,0,1,52.28,63V79.1a1.34,1.34,0,0,0,2.68,0V63a9.38,9.38,0,0,0-8.78-9.39ZM34.86,48.26V42.9H45.58v5.36a5.36,5.36,0,0,1-10.72,0Zm-4-6.7v-4H45.58a4,4,0,0,1,4,4,4,4,0,0,1-1.34,3v-3a1.34,1.34,0,0,0-1.34-1.34H33.51a1.34,1.34,0,0,0-1.34,1.34v3a4,4,0,0,1-1.34-3Zm9.39,29.76-1.34-1.94,1-7.71h.64l1,7.71-1.34,1.94Zm1.34-13.67A1.35,1.35,0,0,1,41,58.74a1.4,1.4,0,0,1-2.12-1.09,1.34,1.34,0,1,1,2.68,0Z"/>
        <path class="cls-1" d="M32.17,63a1.34,1.34,0,0,0-1.34,1.34V79.09a1.34,1.34,0,1,0,2.68,0V64.35A1.34,1.34,0,0,0,32.17,63Z"/>
        <path class="cls-1" d="M48.26,63a1.34,1.34,0,0,0-1.34,1.34V79.09a1.34,1.34,0,1,0,2.68,0V64.35A1.34,1.34,0,0,0,48.26,63Z"/>
        <path class="cls-1" d="M66.68,52.7a6.66,6.66,0,0,0,1.69-4.44V42.9a6.7,6.7,0,0,0-6.7-6.7H56.3A1.34,1.34,0,0,0,55,37.54V48.26a6.76,6.76,0,0,0,1.69,4.44A6.38,6.38,0,0,0,54.56,54a1.34,1.34,0,0,0,1.77,2,3.84,3.84,0,0,1,.82-.56l3.18,5.36V72.39a1.34,1.34,0,1,0,2.68,0V60.7l3.18-5.36A4,4,0,0,1,68.37,59v13.4a1.34,1.34,0,0,0,2.68,0V59a6.69,6.69,0,0,0-4.37-6.29Zm-9-4.44v-4h8v4a4,4,0,0,1-8,0Zm0-9.38h4a4,4,0,0,1,3.79,2.68H57.65V38.88Zm4,18.85L60,55h3.3Z"/>
        <path class="cls-1" d="M26.2,54.24a6.85,6.85,0,0,0-2.42-1.54,6.66,6.66,0,0,0,1.69-4.44v-8a4,4,0,0,0-4-4H16.09a4,4,0,0,0-4,4v8a6.7,6.7,0,0,0,1.68,4.44A6.71,6.71,0,0,0,9.38,59v13.4a1.35,1.35,0,0,0,2.69,0V59a4,4,0,0,1,2.18-3.58l3.18,5.36V72.39a1.34,1.34,0,1,0,2.68,0V60.7l3.18-5.36a3.82,3.82,0,0,1,1,.74,1.35,1.35,0,0,0,1.91-1.91v.07Zm-11.45-6v-4h8v4a4,4,0,0,1-8,0Zm0-8a1.34,1.34,0,0,1,1.34-1.34h5.36a1.34,1.34,0,0,1,1.34,1.34v1.34h-8V40.22Zm4,17.51L17.12,55h3.3Z"/>
        <path class="cls-1" d="M18.77,33.51a1.34,1.34,0,0,0,1.34-1.34V2.68H60.33V32.17a1.34,1.34,0,1,0,2.68,0V1.34A1.34,1.34,0,0,0,61.67,0H18.77a1.34,1.34,0,0,0-1.34,1.34V32.17a1.34,1.34,0,0,0,1.34,1.34Z"/>
        <path class="cls-1" d="M53.62,12.07a1.34,1.34,0,0,0-1.34-1.35H29.49V8H52.28a1.34,1.34,0,0,0,0-2.68H28.15A1.34,1.34,0,0,0,26.81,6.7v5.37a1.34,1.34,0,0,0,1.34,1.34H52.28a1.34,1.34,0,0,0,1.34-1.34Z"/>
        <path class="cls-1" d="M24.8,20.11a1.34,1.34,0,0,0-1.34,1.34v6.7a1.34,1.34,0,0,0,1.34,1.34h6.7a1.34,1.34,0,0,0,1.34-1.34v-6.7a1.34,1.34,0,0,0-1.34-1.34Zm5.36,6.7h-4v-4h4Z"/>
        <path class="cls-1" d="M43.57,22.79a1.34,1.34,0,0,0,0-2.68h-6.7a1.34,1.34,0,0,0-1.34,1.34v6.7a1.34,1.34,0,0,0,1.34,1.34h6.7a1.34,1.34,0,0,0,0-2.68H38.21v-4Z"/>
        <path class="cls-1" d="M48.93,29.49h6.7A1.35,1.35,0,0,0,57,28.15v-6.7a1.35,1.35,0,0,0-1.35-1.34h-6.7a1.34,1.34,0,0,0-1.34,1.34v6.7a1.34,1.34,0,0,0,1.34,1.34Zm1.34-6.7h4v4h-4Z"/>
        <path class="cls-1" d="M79.09,14.75H67a1.34,1.34,0,0,0,0,2.68H77.75v2.68H67a1.34,1.34,0,0,0,0,2.68H77.75v2.68H67a1.34,1.34,0,0,0,0,2.68H77.75v2.68H67a1.34,1.34,0,0,0,0,2.68H77.75V36.2h-6.7a1.34,1.34,0,1,0,0,2.68h6.7v2.68H72.39a1.34,1.34,0,1,0,0,2.68h5.36V72.39a1.35,1.35,0,0,0,2.69,0V16.09a1.34,1.34,0,0,0-1.35-1.34Z"/>
        <path class="cls-1" d="M14.75,6.7a1.34,1.34,0,0,0-1.34-1.34H1.34A1.34,1.34,0,0,0,0,6.7V72.39a1.34,1.34,0,1,0,2.68,0V8H13.41A1.34,1.34,0,0,0,14.75,6.7Z"/>
        <path class="cls-1" d="M13.41,14.75a1.34,1.34,0,0,0,0-2.68H6.7a1.34,1.34,0,0,0-1.34,1.34v5.36A1.34,1.34,0,0,0,6.7,20.11h6.71a1.34,1.34,0,0,0,0-2.68H8V14.75Z"/>
        <path class="cls-1" d="M13.41,26.81a1.34,1.34,0,0,0,0-2.68H6.7a1.34,1.34,0,0,0-1.34,1.34v5.36A1.34,1.34,0,0,0,6.7,32.17h6.71a1.34,1.34,0,1,0,0-2.68H8V26.81Z"/>
        <path class="cls-1" d="M8,41.56V38.88H9.38a1.34,1.34,0,1,0,0-2.68H6.7a1.34,1.34,0,0,0-1.34,1.34V42.9A1.34,1.34,0,0,0,6.7,44.24H8a1.34,1.34,0,0,0,0-2.68Z"/>
      </g>
    </g>
  </g>
</svg>
