<svg xmlns="http://www.w3.org/2000/svg" width="17.23mm" height="18.41mm" viewBox="0 0 48.85 52.2">
  <defs>
    <style>
      .cls-1 {
        fill: #1a1a18;
        fill-rule: evenodd;
      }
    </style>
  </defs>
  <title>list</title>
  <g id="Слой_2" data-name="Слой 2">
    <g id="Слой_1-2" data-name="Слой 1">
      <g>
        <path class="cls-1" d="M35.36,36.69a7.27,7.27,0,0,1,7.3-.63,7.51,7.51,0,0,1,2.25,12.22,8.09,8.09,0,0,1-3.66,2,7.57,7.57,0,0,1-5.89-1.11v3h4.73a8.07,8.07,0,0,0,3.44-.88A9.27,9.27,0,0,0,48,39a8.08,8.08,0,0,0-1.78-2.53,9.19,9.19,0,0,0-5.76-2.76V12.52c0-1.53.09-1-1.55-2.65L37.44,8.45,35.36,6.37V8.8l2.13,2.12H35.36v1.7h3.37v21a7.5,7.5,0,0,0-3.37,1ZM32,42.94a7.56,7.56,0,0,1,3.37-6.25v-2A10.72,10.72,0,0,0,33,36.44a9.14,9.14,0,0,0-2.65,6,9,9,0,0,0,1.26,5.26,13.36,13.36,0,0,0,2.53,2.84H1.68V1.68h26.1V11.79c0,.38.29.84.63.84h7v-1.7H29.47V3L35.36,8.8V6.37l-5-5C30.07,1.07,29.18,0,28.83,0H.84A.79.79,0,0,0,0,.84V51.36a.79.79,0,0,0,.84.84H35.36v-3A7.56,7.56,0,0,1,32,42.94Z"/>
        <path class="cls-1" d="M14.31,16.63c0,.39.08,1.05.63,1.05H31.15a.84.84,0,1,0,0-1.68H14.94A.8.8,0,0,0,14.31,16.63Z"/>
        <path class="cls-1" d="M14.31,24.41a.8.8,0,0,0,.84.85h16a.85.85,0,1,0,0-1.69h-16A.79.79,0,0,0,14.31,24.41Z"/>
        <path class="cls-1" d="M14.31,32a.79.79,0,0,0,.84.84h16a.84.84,0,1,0,0-1.68h-16A.79.79,0,0,0,14.31,32Z"/>
        <path class="cls-1" d="M38.73,44.2c-1-.69-2.54-3-3.37-3a.79.79,0,0,0-.84.84c0,.6,1.31,1.68,1.92,2.29l1.05,1.06c1.58,1.57,1.46,1,4.79-2.32L44.8,40.6c.29-.29.66-.52.66-1a.79.79,0,0,0-.84-.84c-.63,0-2.5,2.13-3,2.65A34.27,34.27,0,0,1,38.73,44.2Z"/>
        <path class="cls-1" d="M10.1,16h.84v1.68H10.1v1.68H12a.8.8,0,0,0,.63-.63V15.15a.79.79,0,0,0-.84-.84H10.1Zm-.84,0h.84V14.31H8.21a.8.8,0,0,0-.63.63v3.58a.79.79,0,0,0,.84.84H10.1V17.68H9.26Z"/>
        <path class="cls-1" d="M10.1,31.15h.84v1.68H10.1v1.69h1.69a.79.79,0,0,0,.84-.84V30.31c0-.39-.29-.84-.63-.84H10.1Zm-.84,0h.84V29.47H8.42a.79.79,0,0,0-.84.84v3.58c0,.34.45.63.84.63H10.1V32.83H9.26Z"/>
        <path class="cls-1" d="M10.1,38.73h.84v1.68H10.1v1.68h1.69a.79.79,0,0,0,.84-.84V37.67c0-.34-.46-.63-.84-.63H10.1Zm-.84,0h.84V37H8.42a.79.79,0,0,0-.84.84v3.37c0,.39.29.84.63.84H10.1V40.41H9.26Z"/>
        <path class="cls-1" d="M10.1,23.57h.84v1.69H10.1v1.68h1.69a.79.79,0,0,0,.84-.84V22.73a.79.79,0,0,0-.84-.84H10.1Zm-.84,0h.84V21.89H8.42a.79.79,0,0,0-.84.84V26.1a.79.79,0,0,0,.84.84H10.1V25.26H9.26Z"/>
        <path class="cls-1" d="M14.31,39.57a.79.79,0,0,0,.84.84H25.26a.84.84,0,1,0,0-1.68H15.15A.79.79,0,0,0,14.31,39.57Z"/>
      </g>
    </g>
  </g>
</svg>
