<svg xmlns="http://www.w3.org/2000/svg" width="93.49mm" height="36.69mm" viewBox="0 0 265.01 103.99">
  <defs>
    <style>
      .cls-1 {
        fill: #fc0;
      }

      .cls-1, .cls-2 {
        fill-rule: evenodd;
      }

      .cls-2 {
        fill: #fff;
      }
    </style>
  </defs>
  <title>header_logo</title>
  <g id="Слой_2" data-name="Слой 2">
    <g id="Слой_1-2" data-name="Слой 1">
      <g>
        <path class="cls-1" d="M12.94,5.58h58V7.05h-58A11.5,11.5,0,0,0,1.47,18.52V73.94c0,6.57,5.64,10.62,11.68,11.49l118.73,17.08,120-17.08c6-.86,11.68-4.92,11.68-11.49V18.52A11.51,11.51,0,0,0,252.07,7.05H145.94V5.58H252.07A13,13,0,0,1,265,18.52V73.94c0,7.12-5.9,11.94-12.94,12.94L131.88,104,12.94,86.88C5.89,85.87,0,81.06,0,73.94V18.52A13,13,0,0,1,12.94,5.58Z"/>
        <g>
          <polygon class="cls-1" points="106.64 76.52 106.64 37.44 87.17 56.2 87.17 76.52 106.64 76.52"/>
          <path class="cls-2" d="M229.53,37.81c-.51-.1-1.14-.18-1.88-.25s-1.58-.1-2.49-.1a40,40,0,0,0-6.91.57,33.82,33.82,0,0,0-5.49,1.44V65.18h9.74V45.4a4.22,4.22,0,0,1,.93-.23,7.44,7.44,0,0,1,1.08-.07,9.62,9.62,0,0,1,1.77.15,4.75,4.75,0,0,1,1.49.5l1.76-7.94Zm-30,10.8-7.69.9a7.17,7.17,0,0,1,.63-3.07A3.78,3.78,0,0,1,194,44.78a4.39,4.39,0,0,1,2.1-.49,3.06,3.06,0,0,1,2.52,1.14,5.12,5.12,0,0,1,.9,3.18Zm9.38,2a16.42,16.42,0,0,0-.78-5.22,11.68,11.68,0,0,0-2.36-4.16,10.66,10.66,0,0,0-3.93-2.74,14.41,14.41,0,0,0-5.48-1,14.73,14.73,0,0,0-5.64,1,11.62,11.62,0,0,0-4.2,2.93,12.83,12.83,0,0,0-2.61,4.47,17.58,17.58,0,0,0-.9,5.71,16.65,16.65,0,0,0,.87,5.48,12.73,12.73,0,0,0,2.64,4.52A12.23,12.23,0,0,0,191,64.7a17.18,17.18,0,0,0,6.4,1.13,34.37,34.37,0,0,0,4.21-.25,29.36,29.36,0,0,0,3.83-.71,18.06,18.06,0,0,0,3.1-1.05l-2.61-7.18a15.9,15.9,0,0,1-2.33.88,20.77,20.77,0,0,1-2.65.57,18.29,18.29,0,0,1-2.75.21,9.43,9.43,0,0,1-2.51-.31,5.5,5.5,0,0,1-2-.94,3.78,3.78,0,0,1-1.2-1.61l16.26-2.06c.05-.48.08-1,.1-1.41v-1.4ZM180.38,64.62v-8a5.11,5.11,0,0,1-1,.35,4.75,4.75,0,0,1-1.17.15,3.84,3.84,0,0,1-1.14-.15,1.42,1.42,0,0,1-.75-.61,2.21,2.21,0,0,1-.27-1.19V45.35h4.32V38.12h-4.32V30l-9.54,2.56v5.53h-2.91v7.23h2.91V55.89a15.4,15.4,0,0,0,.8,5.41A6.17,6.17,0,0,0,170,64.58a9.34,9.34,0,0,0,4.85,1.1,16.39,16.39,0,0,0,4.15-.54,7.29,7.29,0,0,0,1.42-.52Zm-19-7.83a8.12,8.12,0,0,0-.54-3,6.73,6.73,0,0,0-1.41-2.17,8.42,8.42,0,0,0-1.93-1.5,14.82,14.82,0,0,0-2.14-1q-1.08-.42-2-.72a15.32,15.32,0,0,1-1.46-.58,3.09,3.09,0,0,1-1-.72,1.46,1.46,0,0,1-.38-1,1.29,1.29,0,0,1,.63-1.14,3.13,3.13,0,0,1,1.73-.42,6.24,6.24,0,0,1,1.29.15,11.92,11.92,0,0,1,1.43.35c.47.15.92.3,1.33.47a10,10,0,0,1,1,.49l2.81-6.48a18.67,18.67,0,0,0-4-1.44,22.66,22.66,0,0,0-5.22-.57,15.22,15.22,0,0,0-5.93,1.06,8.31,8.31,0,0,0-3.75,3,8.11,8.11,0,0,0-1.31,4.64,7.75,7.75,0,0,0,.54,3,6.65,6.65,0,0,0,1.4,2.17,9,9,0,0,0,1.93,1.51,13.87,13.87,0,0,0,2.13,1c.71.28,1.37.52,2,.73s1,.37,1.4.56a3.25,3.25,0,0,1,1,.67,1.4,1.4,0,0,1,.36.93,1.28,1.28,0,0,1-.57,1.07,2.61,2.61,0,0,1-1.59.44,8.83,8.83,0,0,1-1.51-.16,17.38,17.38,0,0,1-1.77-.42A16.5,16.5,0,0,1,144,57.1a8,8,0,0,1-1.27-.61l-3,7.33a18.32,18.32,0,0,0,2.52,1,24.94,24.94,0,0,0,3.26.74,25.23,25.23,0,0,0,3.76.3,18.32,18.32,0,0,0,6.76-1.11,8.47,8.47,0,0,0,4-3.13,8.66,8.66,0,0,0,1.3-4.8Zm-34,2.16a3.49,3.49,0,0,1-.91.16c-.39,0-.81,0-1.25,0a6.52,6.52,0,0,1-2.06-.3,2.93,2.93,0,0,1-1.38-.92,2.59,2.59,0,0,1,.2-3.35,4.43,4.43,0,0,1,2.07-.92,20.88,20.88,0,0,1,3.33-.33V59Zm9.14,4.87V47.91a12.52,12.52,0,0,0-1.23-6,7.34,7.34,0,0,0-3.78-3.38A17,17,0,0,0,125,37.46a32.87,32.87,0,0,0-4.39.31,37,37,0,0,0-3.9.76,27.64,27.64,0,0,0-3,.94L116,45.9a24,24,0,0,1,2.35-.78,25.13,25.13,0,0,1,2.72-.59,17.55,17.55,0,0,1,2.76-.24,4.71,4.71,0,0,1,2.7.64,2,2,0,0,1,.86,1.72v.7c-1.63.09-3.19.26-4.7.49a24.5,24.5,0,0,0-4.15,1,12.23,12.23,0,0,0-3.31,1.67A7.36,7.36,0,0,0,113,53a8,8,0,0,0-.79,3.6,7.85,7.85,0,0,0,3.31,6.84q3.3,2.33,10,2.35a36.47,36.47,0,0,0,4.41-.28,31.25,31.25,0,0,0,3.82-.74A14.48,14.48,0,0,0,136.5,63.82Z"/>
          <path class="cls-2" d="M227.78,74l1.16.15A3,3,0,0,1,228,76a2.83,2.83,0,0,1-1.92.68,3,3,0,0,1-2.29-.93,3.77,3.77,0,0,1-.87-2.68,4.84,4.84,0,0,1,.37-2,2.6,2.6,0,0,1,1.14-1.26,3.35,3.35,0,0,1,1.65-.42,2.86,2.86,0,0,1,1.85.57,2.64,2.64,0,0,1,.93,1.63l-1.15.17a2,2,0,0,0-.57-1.05,1.5,1.5,0,0,0-1-.35,1.85,1.85,0,0,0-1.45.63,3,3,0,0,0-.55,2,3.22,3.22,0,0,0,.53,2,1.76,1.76,0,0,0,1.4.63,1.62,1.62,0,0,0,1.16-.43,2.08,2.08,0,0,0,.59-1.3Zm-17-4.4H212v5.29l3.27-5.29h1.26v6.94h-1.17V71.26l-3.27,5.26h-1.26V69.58Zm-10.92,6h1.55a2.73,2.73,0,0,0,1.37-.23.92.92,0,0,0,.4-.8,1,1,0,0,0-.22-.62.92.92,0,0,0-.56-.36,5.91,5.91,0,0,0-1.11-.07h-1.43v2.08Zm0-3h1.26a4.6,4.6,0,0,0,1-.08,1,1,0,0,0,.5-.32.81.81,0,0,0,.23-.57.79.79,0,0,0-.39-.76,2.87,2.87,0,0,0-1.33-.22h-1.3v2Zm-1.18-2.92h2.72a5,5,0,0,1,1.49.16,1.82,1.82,0,0,1,.83.61,1.64,1.64,0,0,1,.35,1.07,1.86,1.86,0,0,1-.2.87,1.73,1.73,0,0,1-.62.61,1.59,1.59,0,0,1,.81.62,1.74,1.74,0,0,1,.33,1.06,1.86,1.86,0,0,1-.71,1.46,3.08,3.08,0,0,1-1.86.48h-3.14V69.58Zm-11.37,3.51a3,3,0,0,0,.55,2,1.65,1.65,0,0,0,1.31.64,1.71,1.71,0,0,0,1.35-.67,3.14,3.14,0,0,0,.56-2.05,3.09,3.09,0,0,0-.55-2,1.65,1.65,0,0,0-1.3-.66,1.7,1.7,0,0,0-1.34.7,3.21,3.21,0,0,0-.58,2Zm-1.06,6.09v-9.6h1.07v.9a2.59,2.59,0,0,1,.86-.8,2.41,2.41,0,0,1,1.15-.26,2.76,2.76,0,0,1,1.57.45,2.79,2.79,0,0,1,1,1.3,4.69,4.69,0,0,1,.35,1.82,4.75,4.75,0,0,1-.38,1.93,3,3,0,0,1-2.65,1.76,2.33,2.33,0,0,1-1.06-.25,2.49,2.49,0,0,1-.76-.63v3.38Zm-11.54-6.8h3.88a2.36,2.36,0,0,0-.45-1.31,1.77,1.77,0,0,0-1.45-.68,1.88,1.88,0,0,0-1.37.54,2.13,2.13,0,0,0-.61,1.45Zm3.86,1.9,1.22.15a2.93,2.93,0,0,1-1.07,1.66,3.6,3.6,0,0,1-4.4-.35,3.64,3.64,0,0,1-.89-2.63,3.83,3.83,0,0,1,.9-2.72,3,3,0,0,1,2.34-1,3,3,0,0,1,2.28,1,3.75,3.75,0,0,1,.88,2.66c0,.08,0,.18,0,.32h-5.18a2.68,2.68,0,0,0,.65,1.75,1.91,1.91,0,0,0,1.45.61,1.81,1.81,0,0,0,1.11-.34,2.31,2.31,0,0,0,.72-1.09Zm-11.9-.3,1.16.15a3,3,0,0,1-1,1.87,2.83,2.83,0,0,1-1.92.68,3,3,0,0,1-2.29-.93,3.77,3.77,0,0,1-.87-2.68,5,5,0,0,1,.37-2,2.6,2.6,0,0,1,1.14-1.26,3.38,3.38,0,0,1,1.66-.42,2.9,2.9,0,0,1,1.85.57,2.63,2.63,0,0,1,.92,1.63l-1.14.17a1.92,1.92,0,0,0-.58-1.05,1.48,1.48,0,0,0-1-.35,1.83,1.83,0,0,0-1.44.63,3,3,0,0,0-.56,2,3.15,3.15,0,0,0,.54,2,1.75,1.75,0,0,0,1.4.63,1.61,1.61,0,0,0,1.15-.43,2,2,0,0,0,.59-1.3Zm-16.19-.93a2.92,2.92,0,0,0,.59,2A1.93,1.93,0,0,0,154,75a3,3,0,0,0,.58-2,2.86,2.86,0,0,0-.58-2,1.94,1.94,0,0,0-2.92,0,3,3,0,0,0-.59,2Zm-1.21,0a3.57,3.57,0,0,1,1.08-2.86,3.23,3.23,0,0,1,2.18-.77,3.08,3.08,0,0,1,2.34.94,3.54,3.54,0,0,1,.91,2.59,4.58,4.58,0,0,1-.4,2.11,2.86,2.86,0,0,1-1.17,1.19,3.34,3.34,0,0,1-1.68.43,3.11,3.11,0,0,1-2.36-.94,3.72,3.72,0,0,1-.9-2.69Zm-11.16-3.47h5.65v1h-2.24v6h-1.17v-6h-2.24v-1Zm-10,6h1.55a2.75,2.75,0,0,0,1.37-.23.89.89,0,0,0,.39-.8,1,1,0,0,0-.21-.62,1,1,0,0,0-.56-.36,6,6,0,0,0-1.12-.07h-1.42v2.08Zm0-3h1.25a4.64,4.64,0,0,0,1-.08,1.1,1.1,0,0,0,.5-.32.8.8,0,0,0,.22-.57.79.79,0,0,0-.39-.76,2.82,2.82,0,0,0-1.33-.22h-1.29v2ZM127,69.58h2.71a5,5,0,0,1,1.49.16,1.8,1.8,0,0,1,.84.61,1.7,1.7,0,0,1,.35,1.07,1.75,1.75,0,0,1-.21.87,1.62,1.62,0,0,1-.61.61,1.68,1.68,0,0,1,.81.62,1.73,1.73,0,0,1,.32,1.06A1.85,1.85,0,0,1,132,76a3.09,3.09,0,0,1-1.87.48H127V69.58ZM119,73a8.24,8.24,0,0,1-1.92.45,4.9,4.9,0,0,0-1,.23,1,1,0,0,0-.46.39,1,1,0,0,0,.19,1.34,1.52,1.52,0,0,0,1,.32,2.41,2.41,0,0,0,1.21-.3,1.87,1.87,0,0,0,.78-.82,2.73,2.73,0,0,0,.19-1.17V73Zm.1,2.63a4.71,4.71,0,0,1-1.26.79,3.7,3.7,0,0,1-1.3.23,2.55,2.55,0,0,1-1.76-.56,2,2,0,0,1-.38-2.36,1.91,1.91,0,0,1,.61-.68,2.94,2.94,0,0,1,.84-.39,7.89,7.89,0,0,1,1-.17,11,11,0,0,0,2.1-.41c0-.16,0-.26,0-.3a1.33,1.33,0,0,0-.34-1,2,2,0,0,0-1.34-.4,2.15,2.15,0,0,0-1.23.29,1.85,1.85,0,0,0-.58,1l-1.15-.15a3,3,0,0,1,.52-1.2,2.3,2.3,0,0,1,1-.7,4.67,4.67,0,0,1,1.57-.24,4.16,4.16,0,0,1,1.45.21,1.86,1.86,0,0,1,.81.52,1.84,1.84,0,0,1,.37.81,6.45,6.45,0,0,1,.06,1.08v1.57a17.13,17.13,0,0,0,.07,2.08,2.59,2.59,0,0,0,.3.83h-1.23A2.41,2.41,0,0,1,119.06,75.66Z"/>
          <path class="cls-1" d="M116,1.18l-9.49,9.23a2.06,2.06,0,0,0,0,2.89l6.14,6.31a2,2,0,0,0,2.89,0l9.74-9.47c5,12.27-6.21,23.89-18.4,20.75v0C97.48,40.08,88.19,49.26,78.75,58.3c-3.93,3.76-9.69,5.13-14.76.26-3.57-3.44-5.66-5.53-9.2-9v27H35.48V26.61c0-6.66,7.58-11.24,14-5.23,7.47,7,14.32,13.85,21.49,20.78L95.28,17.7C92.37,5.85,104.84-3.37,116,1.18Z"/>
        </g>
      </g>
    </g>
  </g>
</svg>
