<svg xmlns="http://www.w3.org/2000/svg" width="14.68mm" height="19.58mm" viewBox="0 0 41.63 55.5">
  <defs>
    <style>
      .cls-1 {
        fill: #000003;
      }

      .cls-1, .cls-2 {
        fill-rule: evenodd;
      }

      .cls-2 {
        fill: #fc0;
      }
    </style>
  </defs>
  <title>map_marker</title>
  <g id="Слой_2" data-name="Слой 2">
    <g id="Слой_1-2" data-name="Слой 1">
      <g>
        <path class="cls-1" d="M20.81,0A20.91,20.91,0,0,0,0,21c0,16.43,18.86,33.39,19.66,34.1a1.74,1.74,0,0,0,1.15.44A1.77,1.77,0,0,0,22,55.06c.8-.71,19.66-17.67,19.66-34.1A20.91,20.91,0,0,0,20.81,0Z"/>
        <path class="cls-2" d="M28.45,31.18V19.56l-5.79,5.58v6ZM31.24,8.77l-2.82,2.74a.61.61,0,0,0,0,.86l1.83,1.88a.6.6,0,0,0,.86,0L34,11.44a4.6,4.6,0,0,1-5.48,6.18h0c-2.79,2.71-5.55,5.44-8.36,8.13a3,3,0,0,1-4.39.08c-1.06-1-1.68-1.65-2.74-2.68v8H7.28V16.33a2.34,2.34,0,0,1,4.15-1.55c2.23,2.09,4.26,4.12,6.4,6.18l7.24-7.28C24.21,10.16,27.91,7.42,31.24,8.77Z"/>
      </g>
    </g>
  </g>
</svg>
