<svg xmlns="http://www.w3.org/2000/svg" width="69.51mm" height="28.36mm" viewBox="0 0 197.05 80.4">
  <defs>
    <style>
      .cls-1 {
        fill: #1a1a18;
      }

      .cls-1, .cls-2 {
        fill-rule: evenodd;
      }

      .cls-2 {
        fill: #fc0;
      }
    </style>
  </defs>
  <title> </title>
  <g id="Слой_2" data-name="Слой 2">
    <g id="Слой_1-2" data-name="Слой 1">
      <g>
        <polygon class="cls-1" points="72.26 77.7 72.26 38.02 52.49 57.07 52.49 77.7 72.26 77.7"/>
        <path class="cls-1" d="M197.05,38.4c-.52-.1-1.16-.19-1.91-.26s-1.6-.1-2.53-.1a40.24,40.24,0,0,0-7,.58A33.52,33.52,0,0,0,180,40.08v26.1h9.89V46.1a4.31,4.31,0,0,1,.94-.23,7.8,7.8,0,0,1,1.1-.08,9.77,9.77,0,0,1,1.79.16,4.76,4.76,0,0,1,1.52.5l1.79-8.05Zm-30.49,11-7.8.92a7.22,7.22,0,0,1,.64-3.12A3.77,3.77,0,0,1,161,45.48,4.54,4.54,0,0,1,163.1,45a3.1,3.1,0,0,1,2.55,1.16,5.17,5.17,0,0,1,.91,3.23Zm9.53,2A17,17,0,0,0,175.3,46a12,12,0,0,0-2.4-4.22,11.07,11.07,0,0,0-4-2.78,14.69,14.69,0,0,0-5.57-1,15.25,15.25,0,0,0-5.74,1.06,11.72,11.72,0,0,0-4.25,3,12.68,12.68,0,0,0-2.65,4.54,17.77,17.77,0,0,0-.92,5.8,17.1,17.1,0,0,0,.88,5.56,12.91,12.91,0,0,0,2.69,4.59,12.4,12.4,0,0,0,4.56,3.13,17.52,17.52,0,0,0,6.5,1.14,35.52,35.52,0,0,0,4.28-.25,32.17,32.17,0,0,0,3.89-.71,18.91,18.91,0,0,0,3.15-1.08l-2.65-7.28a18.26,18.26,0,0,1-2.37.89A23.05,23.05,0,0,1,168,59a18.68,18.68,0,0,1-2.78.21,9.27,9.27,0,0,1-2.55-.32,5.34,5.34,0,0,1-2-1,3.94,3.94,0,0,1-1.23-1.64L176,54.2c0-.48.08-1,.1-1.43V51.35Zm-29,14.27v-8.1a5,5,0,0,1-1,.34A5,5,0,0,1,145,58a3.59,3.59,0,0,1-1.16-.17,1.36,1.36,0,0,1-.76-.61,2.3,2.3,0,0,1-.28-1.21V46h4.39V38.7h-4.39V30.5l-9.68,2.6v5.6h-3V46h3V56.75a15.9,15.9,0,0,0,.8,5.5,6.37,6.37,0,0,0,2.69,3.33,9.49,9.49,0,0,0,4.92,1.11,16.38,16.38,0,0,0,2.23-.15,15.78,15.78,0,0,0,2-.39,7.36,7.36,0,0,0,1.45-.53Zm-19.32-8a8.14,8.14,0,0,0-.56-3.08,6.88,6.88,0,0,0-1.42-2.21,8.79,8.79,0,0,0-2-1.52,15.28,15.28,0,0,0-2.17-1c-.73-.27-1.41-.52-2-.73a14.32,14.32,0,0,1-1.48-.58,3.49,3.49,0,0,1-1-.73,1.56,1.56,0,0,1-.39-1,1.37,1.37,0,0,1,.65-1.16,3.12,3.12,0,0,1,1.75-.42,7.24,7.24,0,0,1,1.32.14c.48.1,1,.22,1.45.37a13.06,13.06,0,0,1,1.34.47,7.87,7.87,0,0,1,1,.5l2.85-6.58a18.41,18.41,0,0,0-4.07-1.46,22.89,22.89,0,0,0-5.31-.58,15.69,15.69,0,0,0-6,1.07,8.46,8.46,0,0,0-3.81,3,8.33,8.33,0,0,0-1.33,4.71,8.25,8.25,0,0,0,.55,3,7,7,0,0,0,1.42,2.2,9.19,9.19,0,0,0,2,1.53,14.85,14.85,0,0,0,2.16,1.06c.72.28,1.39.52,2,.74a12.12,12.12,0,0,1,1.41.57,3.07,3.07,0,0,1,1,.67,1.41,1.41,0,0,1,.37.95,1.32,1.32,0,0,1-.58,1.08,2.68,2.68,0,0,1-1.61.45,9.26,9.26,0,0,1-1.54-.16c-.59-.12-1.18-.25-1.8-.43a16.07,16.07,0,0,1-1.7-.58,7.44,7.44,0,0,1-1.29-.62l-3,7.44a17,17,0,0,0,2.55,1,25.5,25.5,0,0,0,3.32.75,24.51,24.51,0,0,0,3.81.3,18.26,18.26,0,0,0,6.87-1.13,8.46,8.46,0,0,0,4-3.17,8.73,8.73,0,0,0,1.33-4.87ZM93.3,59.86a3.5,3.5,0,0,1-.92.16c-.4,0-.83,0-1.27,0a6.67,6.67,0,0,1-2.09-.3,3,3,0,0,1-1.41-.94,2.37,2.37,0,0,1-.53-1.56,2.31,2.31,0,0,1,.74-1.83,4.36,4.36,0,0,1,2.1-.94,20.33,20.33,0,0,1,3.38-.34v5.71Zm9.28,4.94V48.64a12.77,12.77,0,0,0-1.25-6.1,7.44,7.44,0,0,0-3.84-3.43A17,17,0,0,0,90.91,38a33.82,33.82,0,0,0-4.46.31c-1.44.21-2.76.47-4,.77a27.8,27.8,0,0,0-3.1,1l2.34,6.53a23.1,23.1,0,0,1,2.39-.79,26.06,26.06,0,0,1,2.77-.61A17.92,17.92,0,0,1,89.68,45a4.86,4.86,0,0,1,2.75.65,2,2,0,0,1,.87,1.75v.71c-1.65.1-3.24.27-4.77.5a26.63,26.63,0,0,0-4.22,1A12.61,12.61,0,0,0,81,51.28a7.48,7.48,0,0,0-2.24,2.58,8.13,8.13,0,0,0-.8,3.66,8,8,0,0,0,3.35,6.94q3.36,2.37,10.16,2.38a35.79,35.79,0,0,0,4.48-.28,30.58,30.58,0,0,0,3.87-.75A14.62,14.62,0,0,0,102.58,64.8Z"/>
        <path class="cls-1" d="M195.27,75.12l1.18.15a3,3,0,0,1-1,1.9,2.87,2.87,0,0,1-2,.69,3,3,0,0,1-2.33-1,3.86,3.86,0,0,1-.88-2.71,5,5,0,0,1,.38-2,2.64,2.64,0,0,1,1.16-1.28,3.34,3.34,0,0,1,1.68-.43,2.93,2.93,0,0,1,1.88.58,2.67,2.67,0,0,1,.93,1.65l-1.16.18a1.94,1.94,0,0,0-.58-1.07,1.55,1.55,0,0,0-1-.36,1.85,1.85,0,0,0-1.47.65,3,3,0,0,0-.57,2,3.13,3.13,0,0,0,.55,2.06,1.76,1.76,0,0,0,1.42.65,1.69,1.69,0,0,0,1.17-.43,2.12,2.12,0,0,0,.6-1.33ZM178,70.65h1.19V76l3.31-5.38h1.29v7h-1.19V72.36L179.3,77.7H178v-7Zm-11.09,6.07h1.58a2.82,2.82,0,0,0,1.39-.24,1,1,0,0,0,.4-.81,1,1,0,0,0-.22-.63,1,1,0,0,0-.57-.36,6,6,0,0,0-1.13-.08h-1.45v2.12Zm0-3.1h1.28a4.75,4.75,0,0,0,1-.08,1,1,0,0,0,.51-.33.81.81,0,0,0,.22-.58.8.8,0,0,0-.39-.77,2.94,2.94,0,0,0-1.35-.22h-1.32v2Zm-1.19-3h2.75a5.19,5.19,0,0,1,1.52.17,1.8,1.8,0,0,1,.84.62,1.68,1.68,0,0,1,.36,1.08,1.76,1.76,0,0,1-.21.88,1.73,1.73,0,0,1-.63.63,1.68,1.68,0,0,1,.83.62,1.78,1.78,0,0,1,.33,1.08,2,2,0,0,1-.72,1.49,3.14,3.14,0,0,1-1.89.48h-3.18v-7Zm-11.55,3.57a3.13,3.13,0,0,0,.55,2,1.7,1.7,0,0,0,2.7,0,3.17,3.17,0,0,0,.57-2.08,3.1,3.1,0,0,0-.55-2,1.68,1.68,0,0,0-1.33-.67,1.7,1.7,0,0,0-1.35.71,3.2,3.2,0,0,0-.59,2.08Zm-1.08,6.18V70.65h1.09v.92a2.56,2.56,0,0,1,.87-.81,2.35,2.35,0,0,1,1.17-.27,2.86,2.86,0,0,1,1.6.46,2.82,2.82,0,0,1,1,1.32,4.84,4.84,0,0,1,.35,1.85,4.72,4.72,0,0,1-.39,1.95,2.95,2.95,0,0,1-2.68,1.79,2.26,2.26,0,0,1-1.08-.25,2.58,2.58,0,0,1-.78-.64V80.4Zm-11.72-6.9h3.94a2.39,2.39,0,0,0-.45-1.34,1.84,1.84,0,0,0-1.48-.69A2,2,0,0,0,142,72a2.21,2.21,0,0,0-.62,1.48Zm3.93,1.93,1.23.15a3.09,3.09,0,0,1-1.08,1.68,3.66,3.66,0,0,1-4.47-.35,3.71,3.71,0,0,1-.91-2.67,3.92,3.92,0,0,1,.92-2.77,3.11,3.11,0,0,1,2.37-1,3,3,0,0,1,2.31,1,3.82,3.82,0,0,1,.9,2.71c0,.07,0,.18,0,.32h-5.25a2.69,2.69,0,0,0,.65,1.78,2,2,0,0,0,1.48.62,1.84,1.84,0,0,0,1.12-.35,2.32,2.32,0,0,0,.74-1.1Zm-12.09-.31,1.18.15a3,3,0,0,1-1,1.9,2.87,2.87,0,0,1-1.95.69,3,3,0,0,1-2.32-1,3.81,3.81,0,0,1-.89-2.71,5,5,0,0,1,.38-2,2.64,2.64,0,0,1,1.16-1.28,3.34,3.34,0,0,1,1.68-.43,2.93,2.93,0,0,1,1.88.58,2.68,2.68,0,0,1,.94,1.65l-1.17.18a1.94,1.94,0,0,0-.58-1.07,1.53,1.53,0,0,0-1-.36,1.85,1.85,0,0,0-1.47.65,3,3,0,0,0-.57,2,3.19,3.19,0,0,0,.55,2.06,1.78,1.78,0,0,0,1.42.65,1.69,1.69,0,0,0,1.17-.43,2.12,2.12,0,0,0,.6-1.33Zm-16.44-1a3,3,0,0,0,.59,2,1.92,1.92,0,0,0,1.49.68,1.87,1.87,0,0,0,1.48-.68,3,3,0,0,0,.59-2.06,2.9,2.9,0,0,0-.59-2,1.89,1.89,0,0,0-1.48-.67,1.91,1.91,0,0,0-1.49.67,3,3,0,0,0-.59,2Zm-1.23,0a3.66,3.66,0,0,1,1.09-2.9,3.31,3.31,0,0,1,2.22-.78,3.19,3.19,0,0,1,2.38,1,3.62,3.62,0,0,1,.92,2.63,4.6,4.6,0,0,1-.41,2.15,2.93,2.93,0,0,1-1.18,1.21,3.45,3.45,0,0,1-1.71.43,3.15,3.15,0,0,1-2.39-1,3.78,3.78,0,0,1-.92-2.74Zm-11.33-3.52H110v1h-2.27V77.7H106.5V71.64h-2.27v-1ZM94.09,76.72h1.58a2.82,2.82,0,0,0,1.39-.24.92.92,0,0,0,.4-.81,1,1,0,0,0-.22-.63,1,1,0,0,0-.57-.36,5.88,5.88,0,0,0-1.13-.08H94.09v2.12Zm0-3.1h1.28a4.75,4.75,0,0,0,1-.08,1,1,0,0,0,.51-.33.81.81,0,0,0,.22-.58.8.8,0,0,0-.39-.77,2.91,2.91,0,0,0-1.35-.22H94.09v2Zm-1.19-3h2.75a5.07,5.07,0,0,1,1.51.17,1.78,1.78,0,0,1,.85.62,1.68,1.68,0,0,1,.36,1.08,1.76,1.76,0,0,1-.21.88,1.73,1.73,0,0,1-.63.63,1.64,1.64,0,0,1,.83.62,1.78,1.78,0,0,1,.33,1.08A2,2,0,0,1,98,77.22a3.14,3.14,0,0,1-1.89.48H92.9v-7Zm-8.13,3.51a8.31,8.31,0,0,1-2,.45,4.33,4.33,0,0,0-1,.24,1,1,0,0,0-.47.39,1.06,1.06,0,0,0,.19,1.37,1.56,1.56,0,0,0,1.06.31,2.49,2.49,0,0,0,1.23-.3,1.86,1.86,0,0,0,.79-.83,2.83,2.83,0,0,0,.19-1.19v-.44Zm.1,2.67a4.46,4.46,0,0,1-1.28.8,3.81,3.81,0,0,1-1.32.23,2.54,2.54,0,0,1-1.78-.57,2,2,0,0,1-.39-2.39,1.88,1.88,0,0,1,.62-.69,2.7,2.7,0,0,1,.86-.39,6.27,6.27,0,0,1,1.06-.18,11.09,11.09,0,0,0,2.13-.42c0-.16,0-.26,0-.31a1.32,1.32,0,0,0-.34-1,2,2,0,0,0-1.36-.4,2.2,2.2,0,0,0-1.25.29,1.88,1.88,0,0,0-.59,1l-1.17-.16a2.87,2.87,0,0,1,.53-1.21,2.2,2.2,0,0,1,1.05-.71,4.6,4.6,0,0,1,1.6-.25,4.32,4.32,0,0,1,1.47.21,1.93,1.93,0,0,1,.83.54,1.79,1.79,0,0,1,.37.81,6.65,6.65,0,0,1,.06,1.1v1.59a16.7,16.7,0,0,0,.08,2.11,2.62,2.62,0,0,0,.3.85H85.11A2.77,2.77,0,0,1,84.87,76.83Z"/>
        <path class="cls-2" d="M81.78,1.2l-9.64,9.37a2.09,2.09,0,0,0,0,2.93l6.24,6.41a2.08,2.08,0,0,0,2.93.05l9.89-9.62c5,12.45-6.31,24.25-18.69,21.07v0C63,40.7,53.52,50,43.94,59.2c-4,3.82-9.84,5.2-15,.26-3.63-3.49-5.75-5.62-9.35-9.13V77.7H0V27c0-6.76,7.7-11.41,14.18-5.31C21.77,28.86,28.72,35.78,36,42.81L60.72,18C57.78,5.94,70.43-3.42,81.78,1.2Z"/>
      </g>
    </g>
  </g>
</svg>
