<svg xmlns="http://www.w3.org/2000/svg" width="30.3mm" height="30.3mm" viewBox="0 0 85.89 85.89">
  <defs>
    <style>
      .cls-1 {
        fill: #3b3b3a;
        fill-rule: evenodd;
      }
    </style>
  </defs>
  <title>percent</title>
  <g id="Слой_2" data-name="Слой 2">
    <g id="Слой_1-2" data-name="Слой 1">
      <g>
        <path class="cls-1" d="M76.05,31.67c0,2.68,0,3.17,2.18,5.69.23.25.3.39.49.58s.33.27.59.49c.77.68,1.42,1.23,2.15,2,2.51,2.49,1.66,3.54-.89,6-.46.44-.7.54-1.17,1l-1,1c-2.34,2.56-2.35,3.14-2.35,5.88,0,4.18,4.18,8.32-.16,9.86-2.91,1-6.29.86-8.66,3.15-2.16,2.08-2.18,6-3.15,8.66-1.57,4.42-5.51.16-9.86.16-3,0-3,0-5.71,2.17-.78.62-2,2.23-3,3.24-2,2-3.1,2-5.11,0-1.7-1.71-2.38-3-4.31-4.27-2.64-1.75-4.2-1.62-7.65-.45C23,78.57,22,78.68,21,72.75c-1.45-8.35-6.08-6.9-11-8.67-2.67-.95-2.2-2.85-1.07-5.95,1.05-2.87.92-2.86.92-5.88,0-2.3-4.2-5.54-5.41-6.75-3.19-3.17-.64-4.43,2.06-7,1.12-1.06,3.35-3.31,3.35-4.88,0-6.69-1.79-6-1.79-9.84,0-1.23,1-1.66,1.94-2,5.93-2.11,9.07-.08,11-8.67A27.63,27.63,0,0,1,21.8,10c1.58-4.41,5.57-.15,9.87-.15,2.38,0,2.4.22,4.62-1.28C40.14,6,41.39.33,45.41,4.34c1.52,1.51,2.4,3,4.08,4.15,2.26,1.57,2.39,1.35,4.73,1.35,4.1,0,8.27-4.09,9.82,0,.88,2.36.7,3.88,1.65,6.22,1.42,3.49,3.15,4,6.92,4.89C78,22.24,78.72,22.1,77,27.62a11.48,11.48,0,0,0-1,4.05ZM33.1,7C28.84,7,24.66,3.49,21,6c-3.1,2.1-2.45,8.55-4.46,10.57S8.29,17.9,6.05,20.9C3.41,24.45,7,28.84,7,33.1a8.28,8.28,0,0,1-1.65,2.47C3,38,0,39.44,0,43.3c0,2.15,2,3.9,3.18,5.06.76.76,1.4,1.2,2.15,2C5.8,50.8,7,52.24,7,53,7,58.84.62,64.8,10.91,67.46c2,.52,4.35.59,5.64,1.88,2,2,1.35,8.28,4.35,10.5,3.54,2.61,8-.93,12.2-.93a8.28,8.28,0,0,1,2.47,1.65c2.42,2.38,3.87,5.33,7.73,5.33s7.18-7,9.66-7c6,0,11.85,6.33,14.5-3.93.51-2,.59-4.35,1.88-5.64,2-2,8.26-1.35,10.5-4.35,2.6-3.51-.93-8-.93-12.2a8.28,8.28,0,0,1,1.65-2.47c2.38-2.42,5.33-3.88,5.33-7.73,0-2.16-2-3.9-3.18-5.06-.81-.82-3.8-3.15-3.8-4.61,0-6,6.33-11.83-3.93-14.49-2-.52-4.35-.6-5.64-1.88-2-2-1.35-8.28-4.35-10.5C61.41,3.4,57.07,7,52.79,7,50.68,7,47,0,43.3,0c-2.91,0-3.82,1.24-5.77,3.18-.77.76-1.21,1.4-2,2.15A8.28,8.28,0,0,1,33.1,7Z"/>
        <path class="cls-1" d="M27,15.75c4.66,0,8.06,5.89,12.53-.36.91-1.28,2-3.2,3.39-3.94,1.39.73,2.29,2.38,3.35,3.81C49,19,50.63,18.77,54.63,17.05c1.49-.64,2.12-1.3,4.24-1.3.84,3.6.59,7.32,2.27,9s4.55,1.51,6.64,1.76a18.77,18.77,0,0,1,2.36.51c0,4.08-5.17,8.19-.61,11.71,1.74,1.34,4.2,2.88,4.91,4.21-1.38,2.6-6.8,4-6.8,7.52,0,3.3,2.5,5.15,2.5,8.41-6.23,1.45-9.71-.21-10.51,6.31a25.57,25.57,0,0,1-.76,5c-2,0-2.73-.63-4.12-1.25-6.55-2.93-6.8-.12-9.89,3.7a5.57,5.57,0,0,1-1.92,1.85c-1.35-.72-2.43-2.54-3.32-3.84-2.34-3.39-4.64-3.66-8.37-1.77a12.77,12.77,0,0,1-3.46,1.35h-.23c-1.85-.09-.34-6.4-2.72-9-1.53-1.63-4.6-1.6-6.74-1.86a19,19,0,0,1-2.35-.5c0-4.62,5.88-8.06-.36-12.53-1.33-1-3.17-1.94-3.94-3.4,1.37-2.59,6.8-4,6.8-7.51,0-4.27-4.58-8-1.54-8.7,3.46-.76,7.63.21,9-3.67.38-1,.67-4.75,1.27-7.31Zm8.59-.54c-3.51,0-10.15-6.39-11.85,1.21-.33,1.47-.29,5.36-1.13,6.21-1.61,1.61-9.93-.5-9.93,4.93,0,3,2.51,5.18,2.51,7.87,0,1.89-6.62,3.13-6.62,8,0,1.34,2,3.12,2.9,3.72.58.4,3.72,2.58,3.72,3.08,0,3.55-6.39,10.08,1.21,11.85,1.5.35,3.14.17,4.8.57.76.19.73.4,1.5.46.07.84.51,1,.7,2.89.25,2.59.1,7.13,4.14,7.13,3,0,5.18-2.5,7.87-2.5,1.38,0,4.17,6.62,7,6.62,2.24,0,3.45-.93,4.72-2.79.43-.62,2.63-3.83,3.15-3.83,3.57,0,10.08,6.39,11.85-1.21.34-1.42.3-5.38,1.13-6.21s4.79-.79,6.21-1.13c7.6-1.77,1.21-8.39,1.21-11.67,0-1.9,6.62-3.14,6.62-8.05,0-1.35-2-3.12-2.9-3.73-.58-.39-3.72-2.57-3.72-3.07,0-3.53,6.39-10.15-1.21-11.85-1.63-.37-3.12-.17-4.8-.57-.76-.19-.74-.4-1.51-.47a5.54,5.54,0,0,0-.4-1.39C62,18.5,63,12.7,58.33,12.7c-3,0-5.19,2.51-7.87,2.51-1.44,0-4.17-6.62-7-6.62-2.24,0-3.45.93-4.73,2.79C38.33,12,36.13,15.21,35.61,15.21Z"/>
        <path class="cls-1" d="M31.49,53a1.27,1.27,0,0,0,1.43,1.44c1.08,0,4.75-4.13,5.68-5.06C40.44,47.51,42.14,45.81,44,44s3.54-3.53,5.37-5.37c.93-.93,5.06-4.6,5.06-5.68A1.35,1.35,0,0,0,53,31.49c-1.07,0-4.74,4.12-5.68,5.06L36.55,47.28C35.61,48.22,31.49,51.89,31.49,53Z"/>
        <path class="cls-1" d="M32.92,36a4,4,0,0,1,.77-2.1,3.5,3.5,0,0,1,2-.9c3.59-.25,4.07,5.38.29,5.64a3,3,0,0,1-3-2.64Zm-2.86-.54a5.75,5.75,0,1,0,5.37-5.37A5.66,5.66,0,0,0,30.06,35.43Z"/>
        <path class="cls-1" d="M47.24,50.28a3,3,0,0,1,2.72-3c3.59-.24,4.07,5.38.29,5.64a2.92,2.92,0,0,1-3-2.64Zm-2.86-.54a5.75,5.75,0,1,0,5.36-5.36A5.64,5.64,0,0,0,44.38,49.74Z"/>
      </g>
    </g>
  </g>
</svg>
