<svg width="25" height="35" viewBox="0 0 25 35" fill="none" xmlns="http://www.w3.org/2000/svg">
<path d="M3.84771 1.92792L8.07253 0L14.0755 11.5063L10.029 13.4619C9.22974 15.298 13.2362 22.6334 14.9267 22.7544C15.0604 22.6698 18.8945 20.8178 18.8945 20.8178L25 32.3853C25 32.3853 20.894 34.3599 20.7603 34.4211C9.08119 39.658 -7.61751 7.79481 3.84771 1.92792ZM6.71327 3.78584L5.19359 4.52084C-2.67074 8.54877 11.3986 35.4157 19.5259 31.7713L20.9683 31.0801L17.5947 24.6882L16.0706 25.4174C11.3719 27.6734 3.7972 13.4313 8.56126 10.9244L10.0572 10.1996L6.71327 3.78584Z" fill="black"/>
</svg>
