<svg width="61" height="64" viewBox="0 0 61 64" fill="none" xmlns="http://www.w3.org/2000/svg">
<path d="M40.0357 0C46.0446 0 49.049 0 52.3205 1.05255C55.8591 2.38578 58.6632 5.33292 59.9317 9.05193C61 12.5604 61 15.7181 61 22.0334V41.1196C61 47.4349 61 50.5926 59.9985 54.0309C58.73 57.7499 55.9258 60.6971 52.3873 62.0303C49.1158 63.153 46.1113 63.153 40.0357 63.153H21.8756C15.8667 63.153 12.8623 63.153 9.59076 62.1005C6.05221 60.6971 3.24807 57.8201 1.97953 54.0309C0.911285 50.6628 0.911285 47.5051 0.911285 41.1196V22.0334C0.911285 15.7181 0.911285 12.5604 1.91276 9.1221C3.24807 5.40309 6.05221 2.45595 9.59076 1.12272C12.8623 -8.36492e-08 15.8667 0 21.8756 0H40.0357Z" fill="url(#paint0_linear)"/>
<path d="M14.7318 27.5769C12.5286 23.3667 11.6606 19.9283 11.6606 17.6127C11.6606 15.2971 12.1948 14.6656 12.7289 14.1042C13.263 13.5429 15.7333 11.9991 16.2007 11.6483C16.6013 11.3676 18.2036 10.7361 19.2051 12.2798C20.2066 13.8236 22.076 16.8409 23.4113 18.8758C25.481 21.7528 23.8119 23.0158 23.2778 23.7877C22.2763 25.1911 21.7422 25.5419 21.7422 27.226C21.7422 28.9101 26.2822 33.822 27.3505 35.0149C28.4187 36.2078 32.9587 40.3478 34.3608 40.6285C35.7629 40.839 37.6991 39.2952 38.0997 38.8742C40.1694 37.1901 41.3044 38.4532 42.2391 39.0145C43.1738 39.5759 47.4468 42.3827 48.7821 43.2949C50.0506 44.2071 49.9171 45.6807 49.9171 45.6807C49.9171 45.6807 49.0492 48.4173 47.0462 50.4522C46.5788 50.9434 45.7109 51.575 43.6412 51.575C41.5715 51.575 39.3014 51.1539 33.9602 48.0665C29.6205 45.5403 25.481 41.6108 23.2778 39.2952C21.0745 37.0498 17.2689 32.4186 14.7318 27.5769Z" fill="white"/>
<defs>
<linearGradient id="paint0_linear" x1="30.9703" y1="0.028068" x2="30.9703" y2="63.1516" gradientUnits="userSpaceOnUse">
<stop stop-color="#67FF81"/>
<stop offset="1" stop-color="#01B41F"/>
</linearGradient>
</defs>
</svg>
