<svg width="80" height="101" viewBox="0 0 80 101" fill="none" xmlns="http://www.w3.org/2000/svg">
<path d="M46.038 23.9305V11.9652C46.038 10.7989 45.1483 9.85364 44.0507 9.85364H10.2675C9.16982 9.85364 8.28015 10.7989 8.28015 11.9652V23.9305C8.28015 25.0968 9.16982 26.0421 10.2675 26.0421H44.0507C45.1483 26.0421 46.038 25.0965 46.038 23.9305ZM42.0633 21.8189H12.2548V14.0768H42.0633V21.8189Z" fill="black"/>
<path d="M37.4639 35.1062C31.7819 29.0687 22.5361 29.0692 16.8541 35.1062C11.1723 41.1435 11.1723 50.9671 16.8541 57.0042C19.6951 60.0228 23.4271 61.5321 27.1591 61.5321C30.8909 61.5321 34.6229 60.0228 37.4639 57.0042C43.1459 50.9669 43.1459 41.1435 37.4639 35.1062ZM34.6531 38.0922C38.305 41.9727 38.7272 48.002 35.9244 52.3824L21.204 36.7418C22.9941 35.4485 25.0757 34.7993 27.1589 34.7993C29.8732 34.7993 32.5872 35.8971 34.6531 38.0922ZM19.6647 54.0181C16.0128 50.1377 15.5906 44.1084 18.3934 39.728L33.1138 55.3689C28.9914 58.3467 23.3165 57.8983 19.6647 54.0181Z" fill="black"/>
<path d="M76.688 10.2661V2.1116C76.688 0.945291 75.7983 0 74.7007 0C73.603 0 72.7133 0.945291 72.7133 2.1116V10.2661C70.7732 11.1032 69.4013 13.1262 69.4013 15.4843V32.7283C69.4013 33.8946 70.291 34.8399 71.3887 34.8399H72.7133V77.3269C72.7133 88.0515 64.5016 96.7768 54.408 96.7768C44.5667 96.7768 36.5177 88.4808 36.1218 78.1255H43.3628V79.3437C43.3628 85.4636 48.0489 90.4425 53.8087 90.4425C59.5684 90.4425 64.2543 85.4636 64.2543 79.3437V34.8399H65.5792C66.6769 34.8399 67.5666 33.8946 67.5666 32.7283V15.4843C67.5666 13.1262 66.1944 11.1032 64.2543 10.2661V2.1116C64.2543 0.945291 63.3647 0 62.267 0C61.1693 0 60.2797 0.945291 60.2797 2.1116V10.2661C58.3396 11.1032 56.9677 13.1262 56.9677 15.4843V32.7283C56.9677 33.8946 57.8573 34.8399 58.955 34.8399H60.2797V79.3437C60.2797 83.135 57.3768 86.2193 53.8087 86.2193C50.2405 86.2193 47.3375 83.135 47.3375 79.3437V77.8869C51.3289 76.9233 54.3181 73.1255 54.3181 68.5971V9.5287C54.3181 4.27457 50.2951 0 45.3501 0H8.96797C4.02303 0 0 4.27457 0 9.5287V68.5968C0 73.851 4.02303 78.1255 8.96797 78.1255H32.1421C32.54 90.8104 42.3746 101 54.4082 101C66.6935 101 76.688 90.3803 76.688 77.3269V34.8399H78.0127C79.1103 34.8399 80 33.8946 80 32.7283V15.4843C80 13.1262 78.6279 11.1032 76.688 10.2661ZM63.5917 15.4843V30.6167H60.9421V15.4843C60.9421 14.7082 61.5363 14.0768 62.2668 14.0768C62.9975 14.0768 63.5917 14.7082 63.5917 15.4843ZM3.97467 68.5968V9.5287C3.97467 6.6032 6.21462 4.22319 8.96797 4.22319H45.3501C48.1035 4.22319 50.3434 6.6032 50.3434 9.5287V68.5968C50.3434 71.5223 48.1033 73.9023 45.3501 73.9023H8.96797C6.21462 73.9021 3.97467 71.5221 3.97467 68.5968ZM76.0253 15.4843V30.6167H73.376V15.4843C73.376 14.7082 73.9702 14.0768 74.7007 14.0768C75.4311 14.0768 76.0253 14.7082 76.0253 15.4843Z" fill="black"/>
<path d="M46.3689 71.0869V70.559H46.8657C47.9634 70.559 48.8531 69.6137 48.8531 68.4474C48.8531 67.2811 47.9634 66.3358 46.8657 66.3358H46.3689V65.8079C46.3689 64.6416 45.4792 63.6963 44.3816 63.6963C43.2839 63.6963 42.3942 64.6416 42.3942 65.8079V66.3358H41.8976C40.7999 66.3358 39.9103 67.2811 39.9103 68.4474C39.9103 69.6137 40.7999 70.559 41.8976 70.559H42.3942V71.0869C42.3942 72.2532 43.2839 73.1985 44.3816 73.1985C45.4792 73.1985 46.3689 72.2532 46.3689 71.0869Z" fill="black"/>
<path d="M37.051 66.3361H32.0829C30.9852 66.3361 30.0956 67.2814 30.0956 68.4477C30.0956 69.614 30.9852 70.5593 32.0829 70.5593H37.051C38.1487 70.5593 39.0384 69.614 39.0384 68.4477C39.0384 67.2814 38.1485 66.3361 37.051 66.3361Z" fill="black"/>
</svg>
