<svg xmlns="http://www.w3.org/2000/svg" width="19.4mm" height="19.39mm" viewBox="0 0 54.99 54.97">
  <defs>
    <style>
      .cls-1 {
        fill: #000003;
        fill-rule: evenodd;
      }
    </style>
  </defs>
  <title>shield</title>
  <g id="Слой_2" data-name="Слой 2">
    <g id="Слой_1-2" data-name="Слой 1">
      <path class="cls-1" d="M53.57,36.48l1.3-3.14a1.51,1.51,0,0,0-1.39-2.08H48.59a29.46,29.46,0,0,0,.35-4.5V10.37a1.87,1.87,0,0,0-1.51-1.83l-2-.39-1.75-.39V9.44l1.44.31,2,.39a.24.24,0,0,1,.19.23V26.76a28.17,28.17,0,0,1-.37,4.5H45.07a26,26,0,0,0,.39-4.5V12.37a.81.81,0,0,0-.66-.8h0l-1.09-.23V13l.16,0V26.76a22.93,22.93,0,0,1-.16,2.75v3.38H53.3l-1.25,3a1.44,1.44,0,0,0,0,1.15h0l1.25,3H48.38V38.64a1.8,1.8,0,0,0-.57-1.3l-4.14-3.89v2.23l1.84,1.73H43.67V39h3.08v7a.16.16,0,0,1-.16.15H43.67v1.63h2.92a1.79,1.79,0,0,0,1.79-1.78V41.71h5.1a1.51,1.51,0,0,0,1.39-2.09ZM43.67,7.76c-.8-.2-1.6-.42-2.38-.67a.81.81,0,1,0-.5,1.55c1,.3,1.92.57,2.88.8V7.76Zm0,3.57V13a42.61,42.61,0,0,1-15.5-6.75l-.64-.44h0V4a.83.83,0,0,1,.48.15l1.11.77a40.8,40.8,0,0,0,14.56,6.41Zm0,18.18c-.06.59-.15,1.17-.26,1.75H41.8a1.59,1.59,0,0,0-1.59,1.58v4.57H36.9A12.56,12.56,0,0,0,40,29.14a12.8,12.8,0,0,0-.46-3.37.82.82,0,0,0-1.57.44,11.13,11.13,0,0,1,.4,2.93,10.92,10.92,0,0,1-3.78,8.27H32.41a.81.81,0,0,0-.81.81.82.82,0,0,0,.81.82H43.67V37.41H41.84V34l1.83,1.72V33.45l-.59-.56h.59V29.51Zm0,16.71H27.52v1.63h4a24,24,0,0,1-4,1.81h0v1.68h0a.75.75,0,0,0,.26-.05,25.48,25.48,0,0,0,6.78-3.44h3a27.65,27.65,0,0,1-10,5.46h0V55h0l.23,0A29.45,29.45,0,0,0,40,47.85h3.68V46.22ZM27.52,39h1.42a.82.82,0,0,0,.82-.82.82.82,0,0,0-.82-.81H27.52V39Zm0-20.84a10.81,10.81,0,0,1,4.55,1,.82.82,0,0,0,.69-1.48,12.46,12.46,0,0,0-5.24-1.18V18.2Zm0-16.57a.23.23,0,0,1,.16,0L30.16,3.4a39.18,39.18,0,0,0,7.29,4A.82.82,0,0,0,38.52,7a.83.83,0,0,0-.44-1.07,37.6,37.6,0,0,1-7-3.84L28.61.33A1.94,1.94,0,0,0,27.52,0Zm0,2.37a.78.78,0,0,0-.45.15L25.81,5a41.12,41.12,0,0,1-14.5,6.32V13A42.53,42.53,0,0,0,26.73,6.36l.79-.54V4Zm0,42.22H11.31v1.63H15a29.34,29.34,0,0,0,12.22,7.07l.07,0a.69.69,0,0,0,.2,0V53.3a27.69,27.69,0,0,1-10.06-5.45h3a25.72,25.72,0,0,0,6.84,3.45l.23,0V49.66a24.22,24.22,0,0,1-4-1.81h4V46.22ZM11.31,39H27.52V37.41H20.28A10.94,10.94,0,0,1,27.44,18.2h.08V16.57h-.08A12.56,12.56,0,0,0,18,37.41H14.77V32.84a1.58,1.58,0,0,0-1.58-1.58H11.58c-.11-.59-.2-1.18-.27-1.78v3.41h.6l-.6.56v2.23L13.14,34v3.45H11.31V39Zm0-29.6V7.77A37.48,37.48,0,0,0,23.83,2.16L26.49.33a1.78,1.78,0,0,1,1-.33V1.63a.25.25,0,0,0-.11,0L24.76,3.5A39.11,39.11,0,0,1,11.31,9.44Zm0,1.9-1,.2-.14,0a.81.81,0,0,0-.66.8v7a.82.82,0,0,0,.81.82.82.82,0,0,0,.82-.82V13l.15,0V11.34Zm0,34.88v1.63H8.4a1.79,1.79,0,0,1-1.79-1.78V41.71H1.51A1.51,1.51,0,0,1,.25,41a1.52,1.52,0,0,1-.14-1.42l1.3-3.14L.11,33.34a1.51,1.51,0,0,1,1.4-2.08h4.9a28.72,28.72,0,0,1-.36-4.53V10.37A1.87,1.87,0,0,1,7.56,8.54l2.11-.41c.55-.11,1.1-.23,1.64-.36V9.44L10,9.73l-2.11.41a.24.24,0,0,0-.19.23V26.73a28.54,28.54,0,0,0,.37,4.53H9.93a26.4,26.4,0,0,1-.4-4.53V22.84a.81.81,0,0,1,.81-.81.82.82,0,0,1,.82.81v3.89a25.2,25.2,0,0,0,.15,2.75v3.41H1.69l1.25,3a1.53,1.53,0,0,1,0,1.15l-1.25,3H6.61V38.64a1.8,1.8,0,0,1,.57-1.3l4.13-3.89v2.23L9.48,37.41h1.83V39H8.24v7a.16.16,0,0,0,.16.15Z"/>
      <path class="cls-1" d="M31.52,30l9.27-9.66a1.49,1.49,0,0,0,0-2.12l-1.36-1.31a1.5,1.5,0,0,0-2.12,0l-5.75,6V25.3l6.83-7.11,1.18,1.13-8,8.34Zm-5.66-5a1.48,1.48,0,0,0-2.1-.13l-1.44,1.26a1.5,1.5,0,0,0-.49,1,1.41,1.41,0,0,0,.37,1.07l3.51,4a2.46,2.46,0,0,0,1.78.83h.06a2.44,2.44,0,0,0,1.76-.75L31.52,30V27.66l-3.38,3.52a.83.83,0,0,1-.59.25h0a.83.83,0,0,1-.6-.28l-3.42-3.87,1.22-1.08L27,28.74a.89.89,0,0,0,.61.28.84.84,0,0,0,.62-.26l3.32-3.46V23L27.62,27Z"/>
    </g>
  </g>
</svg>
