<svg xmlns="http://www.w3.org/2000/svg" width="15.64mm" height="15.64mm" viewBox="0 0 44.33 44.33">
  <defs>
    <style>
      .cls-1 {
        fill: #1bb6eb;
      }

      .cls-2 {
        fill: #fff;
        fill-rule: evenodd;
      }
    </style>
  </defs>
  <title>telegram</title>
  <g id="Слой_2" data-name="Слой 2">
    <g id="Слой_1-2" data-name="Слой 1">
      <g>
        <rect class="cls-1" width="44.33" height="44.33"/>
        <path class="cls-2" d="M37.43,7.52,5.39,20a1.17,1.17,0,0,0,.1,2.21l8.14,2.4,3,9.64a1.4,1.4,0,0,0,2.33.56l4.21-4.3,8.26,6.06a1.71,1.71,0,0,0,2.7-1L39.64,9.4a1.65,1.65,0,0,0-2.21-1.88Zm-4,5.81L18.53,26.49a.77.77,0,0,0-.26.51l-.58,5.09a.15.15,0,0,1-.3,0L15,24.52a.78.78,0,0,1,.34-.91L33,12.71A.39.39,0,0,1,33.41,13.33Z"/>
      </g>
    </g>
  </g>
</svg>
