<svg width="46" height="46" viewBox="0 0 46 46" fill="none" xmlns="http://www.w3.org/2000/svg">
<rect width="46" height="46" rx="10" fill="white"/>
<path fill-rule="evenodd" clip-rule="evenodd" d="M36.4167 46H9.58333C4.29142 46 0 41.7086 0 36.4167V9.58333C0 4.29142 4.29142 0 9.58333 0H36.4167C41.7105 0 46 4.29142 46 9.58333V36.4167C46 41.7086 41.7105 46 36.4167 46ZM31.1573 36.133C31.5694 36.4262 32.0984 36.4991 32.5718 36.3189C33.0433 36.1407 33.3922 35.7362 33.4976 35.2456C34.6073 30.0284 37.3022 16.8187 38.3122 12.0731C38.387 11.7147 38.2605 11.3428 37.9807 11.1033C37.6989 10.8656 37.3079 10.7966 36.961 10.925C31.6039 12.9068 15.1033 19.0977 8.35858 21.5951C7.93117 21.7523 7.65325 22.1643 7.66667 22.6167C7.682 23.0671 7.98675 23.46 8.42375 23.5922C11.4482 24.495 15.4196 25.7542 15.4196 25.7542C15.4196 25.7542 17.273 31.3586 18.2409 34.2067C18.3617 34.5652 18.6434 34.8469 19.0114 34.9428C19.3813 35.0386 19.7723 34.9389 20.0483 34.6782C21.6027 33.212 24.0043 30.9446 24.0043 30.9446C24.0043 30.9446 28.5679 34.2911 31.1573 36.133ZM17.089 25.047L19.2337 32.1233L19.711 27.6422C19.711 27.6422 27.9987 20.1672 32.7252 15.9045C32.8632 15.7799 32.8823 15.571 32.7673 15.4234C32.6523 15.2758 32.4434 15.2413 32.2862 15.341C26.8103 18.8389 17.089 25.047 17.089 25.047Z" fill="#0095B6"/>
</svg>
