<svg xmlns="http://www.w3.org/2000/svg" width="17.92mm" height="17.92mm" viewBox="0 0 50.79 50.79">
  <defs>
    <style>
      .cls-1 {
        fill: #fc0;
        fill-rule: evenodd;
      }
    </style>
  </defs>
  <title>telegram_transparent</title>
  <g id="Слой_2" data-name="Слой 2">
    <g id="Слой_1-2" data-name="Слой 1">
      <path class="cls-1" d="M0,50.79H50.79V0H0V50.79ZM42.89,8.62a1.89,1.89,0,0,1,2.53,2.15l-6.27,30a2,2,0,0,1-3.1,1.19l-9.46-7L21.77,39.9a1.6,1.6,0,0,1-2.67-.64l-3.49-11L6.29,25.46a1.34,1.34,0,0,1-.11-2.54L42.89,8.62Zm-4.61,6.65-17,15.08a.94.94,0,0,0-.3.58l-.66,5.84a.17.17,0,0,1-.34,0l-2.7-8.7a.93.93,0,0,1,.39-1.05L37.76,14.56A.44.44,0,0,1,38.28,15.27Z"/>
    </g>
  </g>
</svg>
