<svg xmlns="http://www.w3.org/2000/svg" width="15.64mm" height="15.64mm" viewBox="0 0 44.33 44.33">
  <defs>
    <style>
      .cls-1 {
        fill: #572383;
      }

      .cls-2 {
        fill: #fff;
        fill-rule: evenodd;
      }
    </style>
  </defs>
  <title>viber</title>
  <g id="Слой_2" data-name="Слой 2">
    <g id="Слой_1-2" data-name="Слой 1">
      <g>
        <rect class="cls-1" width="44.33" height="44.33"/>
        <path class="cls-2" d="M22.17,11.76A8,8,0,0,1,30,18.38a19.76,19.76,0,0,1,.21,2,.46.46,0,0,1-.44.55c-.32,0-.46-.26-.48-.54,0-.56-.07-1.12-.15-1.68a7,7,0,0,0-5.66-5.88c-.44-.08-.89-.1-1.34-.15-.28,0-.65,0-.71-.39a.48.48,0,0,1,.47-.55h.23c3.94.11-.07,0,0,0Zm15.54,1.67v0A11.2,11.2,0,0,0,30.13,6.1h0a42.25,42.25,0,0,0-15.85,0h0a11.23,11.23,0,0,0-7.58,7.29v0a31,31,0,0,0,0,13.36v0A11.36,11.36,0,0,0,13.78,34v3.54a1.43,1.43,0,0,0,2.45,1l3.6-3.73c.77,0,1.55.06,2.33.06a42.42,42.42,0,0,0,7.93-.75h0a11.2,11.2,0,0,0,7.57-7.29v0a31,31,0,0,0,0-13.36ZM34.87,26.15a28,28,0,0,0,0-12.08A8.46,8.46,0,0,0,29.52,9,39.18,39.18,0,0,0,14.8,9a8.5,8.5,0,0,0-5.35,5.12,28.28,28.28,0,0,0,0,12.08,8.5,8.5,0,0,0,5.35,5.12h0a.2.2,0,0,1,.17.2v5.87a.33.33,0,0,0,.56.23l2.79-2.86L20.94,32a.22.22,0,0,1,.15-.06,39.17,39.17,0,0,0,8.43-.68,8.46,8.46,0,0,0,5.35-5.12Zm-8.06,2.71c.29-.09-.33-.1,0,0a4.35,4.35,0,0,0,.84-.27,4.51,4.51,0,0,0,2-2.14,1.08,1.08,0,0,0-.33-1.34,15.27,15.27,0,0,0-1.36-1c-.48-.34-.95-.67-1.45-1a1.29,1.29,0,0,0-1.54.07c-.47.39-.68,1.12-1.35,1.2a2.21,2.21,0,0,1-1.1-.27,7.59,7.59,0,0,1-4.27-4.73,1,1,0,0,1,.06-.84,1.57,1.57,0,0,1,.33-.35l.44-.35A1.34,1.34,0,0,0,19.41,16a16.9,16.9,0,0,0-2-2.86,1.06,1.06,0,0,0-1.32-.31A5,5,0,0,0,14.41,14a2.09,2.09,0,0,0-.62,2.08c.33.83.67,1.65,1.06,2.45a20.31,20.31,0,0,0,3,4.67,21.16,21.16,0,0,0,8,5.33c.29.12.6.19.93.29Zm1.35-9.34c0-.27,0,.05,0,0,0-.27,0-.47,0-.68s0-.16,0-.24a5.23,5.23,0,0,0-2.84-4.06,6.29,6.29,0,0,0-2.58-.67.41.41,0,0,0-.47.42.42.42,0,0,0,.4.48l.68.09a5.25,5.25,0,0,1,1.49.46,4.5,4.5,0,0,1,1.87,1.75,4.77,4.77,0,0,1,.6,2.39,1.17,1.17,0,0,0,.05.38.45.45,0,0,0,.84,0,2.3,2.3,0,0,0,0-.28Zm-2.45-.09h0a.4.4,0,0,0,.35-.32,1,1,0,0,0,0-.39A2.7,2.7,0,0,0,23.29,16a.47.47,0,0,0-.5.38.45.45,0,0,0,.37.52c.24.06.49,0,.73.11a1.54,1.54,0,0,1,.53.26,1.76,1.76,0,0,1,.66,1c.05.21.06.42.09.63A.49.49,0,0,0,25.71,19.43Z"/>
      </g>
    </g>
  </g>
</svg>
