<svg xmlns="http://www.w3.org/2000/svg" width="15.64mm" height="15.64mm" viewBox="0 0 44.33 44.33">
  <defs>
    <style>
      .cls-1, .cls-3 {
        fill: #fc0;
      }

      .cls-2 {
        fill: #3b3b3a;
      }

      .cls-2, .cls-3 {
        fill-rule: evenodd;
      }
    </style>
  </defs>
  <title>viber_icon</title>
  <g id="Слой_2" data-name="Слой 2">
    <g id="Слой_1-2" data-name="Слой 1">
      <g>
        <rect class="cls-1" width="44.33" height="44.33"/>
        <path class="cls-2" d="M37.71,13.43v0A11.2,11.2,0,0,0,30.13,6.1h0a42.25,42.25,0,0,0-15.85,0h0a11.23,11.23,0,0,0-7.58,7.29v0a31,31,0,0,0,0,13.36v0A11.36,11.36,0,0,0,13.78,34v3.54a1.43,1.43,0,0,0,2.45,1l3.6-3.73c.77,0,1.55.06,2.33.06a42.42,42.42,0,0,0,7.93-.75h0a11.2,11.2,0,0,0,7.57-7.29v0A31,31,0,0,0,37.71,13.43Z"/>
        <path class="cls-3" d="M34.87,26.15a8.46,8.46,0,0,1-5.35,5.12,39.17,39.17,0,0,1-8.43.68.22.22,0,0,0-.15.06l-2.62,2.7-2.79,2.86a.33.33,0,0,1-.56-.23V31.47a.2.2,0,0,0-.17-.2h0a8.5,8.5,0,0,1-5.35-5.12,28.28,28.28,0,0,1,0-12.08A8.5,8.5,0,0,1,14.8,9,39.18,39.18,0,0,1,29.52,9a8.46,8.46,0,0,1,5.35,5.12A28,28,0,0,1,34.87,26.15Z"/>
        <path class="cls-2" d="M26.81,28.86c-.33-.1-.64-.17-.93-.29a21.16,21.16,0,0,1-8-5.33,20.31,20.31,0,0,1-3-4.67c-.39-.8-.73-1.62-1.06-2.45A2.09,2.09,0,0,1,14.41,14a5,5,0,0,1,1.64-1.24,1.06,1.06,0,0,1,1.32.31,16.9,16.9,0,0,1,2,2.86A1.34,1.34,0,0,1,19,17.81l-.44.35a1.57,1.57,0,0,0-.33.35,1,1,0,0,0-.06.84,7.59,7.59,0,0,0,4.27,4.73,2.21,2.21,0,0,0,1.1.27c.67-.08.88-.81,1.35-1.2a1.29,1.29,0,0,1,1.54-.07c.5.32,1,.65,1.45,1a15.27,15.27,0,0,1,1.36,1,1.08,1.08,0,0,1,.33,1.34,4.51,4.51,0,0,1-2,2.14,4.35,4.35,0,0,1-.84.27C26.48,28.76,27.1,28.77,26.81,28.86Z"/>
        <path class="cls-2" d="M22.17,11.76A8,8,0,0,1,30,18.38a19.76,19.76,0,0,1,.21,2,.46.46,0,0,1-.44.55c-.32,0-.46-.26-.48-.54,0-.56-.07-1.12-.15-1.68a7,7,0,0,0-5.66-5.88c-.44-.08-.89-.1-1.34-.15-.28,0-.65,0-.71-.39a.48.48,0,0,1,.47-.55h.23C26.11,11.87,22.1,11.76,22.17,11.76Z"/>
        <path class="cls-2" d="M28.16,19.52a2.3,2.3,0,0,1,0,.28.45.45,0,0,1-.84,0,1.17,1.17,0,0,1-.05-.38,4.77,4.77,0,0,0-.6-2.39,4.5,4.5,0,0,0-1.87-1.75,5.25,5.25,0,0,0-1.49-.46l-.68-.09a.42.42,0,0,1-.4-.48.41.41,0,0,1,.47-.42,6.29,6.29,0,0,1,2.58.67,5.23,5.23,0,0,1,2.84,4.06c0,.08,0,.16,0,.24s0,.41,0,.68C28.15,19.57,28.14,19.25,28.16,19.52Z"/>
        <path class="cls-2" d="M25.71,19.43a.49.49,0,0,1-.54-.48c0-.21,0-.42-.09-.63a1.76,1.76,0,0,0-.66-1,1.54,1.54,0,0,0-.53-.26c-.24-.07-.49-.05-.73-.11a.45.45,0,0,1-.37-.52.47.47,0,0,1,.5-.38,2.7,2.7,0,0,1,2.77,2.69,1,1,0,0,1,0,.39.39.39,0,0,1-.35.32C25.38,19.43,25.86,19.42,25.71,19.43Z"/>
      </g>
    </g>
  </g>
</svg>
