<svg xmlns="http://www.w3.org/2000/svg" width="17.92mm" height="17.92mm" viewBox="0 0 50.79 50.79">
  <defs>
    <style>
      .cls-1 {
        fill: #fc0;
        fill-rule: evenodd;
      }
    </style>
  </defs>
  <title>viber_transparent</title>
  <g id="Слой_2" data-name="Слой 2">
    <g id="Слой_1-2" data-name="Слой 1">
      <path class="cls-1" d="M0,50.79H50.79V0H0V50.79Zm43.21-35.4a35.61,35.61,0,0,1,0,15.31v0c-.9,3.64-5,7.55-8.68,8.36h0a48.92,48.92,0,0,1-9.09.86c-.89,0-1.78,0-2.67-.08L18.6,44.17A1.63,1.63,0,0,1,15.79,43V39c-3.58-1-7.34-4.75-8.2-8.24v0a35.61,35.61,0,0,1,0-15.31v-.05c.9-3.64,5-7.54,8.68-8.35h0A48.28,48.28,0,0,1,34.48,7h0c3.72.81,7.78,4.71,8.68,8.35v.05ZM29.46,22.26a.56.56,0,0,1-.62-.55,6,6,0,0,0-.11-.72A2,2,0,0,0,28,19.82a1.93,1.93,0,0,0-.61-.3c-.27-.08-.56-.05-.84-.12a.53.53,0,0,1-.42-.6.55.55,0,0,1,.58-.44,3.09,3.09,0,0,1,3.17,3.09,1.3,1.3,0,0,1,0,.44.45.45,0,0,1-.4.37c-.38,0,.17,0,0,0Zm2.8.11a1.45,1.45,0,0,1,0,.31.52.52,0,0,1-1,.06,1.61,1.61,0,0,1-.05-.44,5.45,5.45,0,0,0-.69-2.74,5.06,5.06,0,0,0-2.14-2A6,6,0,0,0,26.66,17c-.26-.05-.52-.07-.77-.11a.52.52,0,0,1,.07-1,7.07,7.07,0,0,1,3,.77,6,6,0,0,1,3.25,4.65,2.74,2.74,0,0,1,0,.28c0,.24,0,.47,0,.78,0,.06,0-.31,0,0ZM25.4,13.48a9.16,9.16,0,0,1,9,7.58,22.32,22.32,0,0,1,.24,2.31.54.54,0,0,1-.51.64c-.36,0-.52-.3-.54-.62,0-.65-.08-1.29-.17-1.93a8.07,8.07,0,0,0-6.5-6.74c-.5-.09-1-.11-1.53-.17-.32,0-.74-.05-.81-.45a.55.55,0,0,1,.54-.62h.26c4.52.12-.08,0,0,0Zm5.32,19.59c-.38-.12-.74-.19-1.07-.33a24.21,24.21,0,0,1-9.14-6.11A24,24,0,0,1,17,21.28c-.45-.92-.83-1.86-1.21-2.81a2.45,2.45,0,0,1,.71-2.39,5.54,5.54,0,0,1,1.88-1.41,1.21,1.21,0,0,1,1.52.36,19.81,19.81,0,0,1,2.33,3.27,1.55,1.55,0,0,1-.43,2.11,6.4,6.4,0,0,0-.51.4,1.8,1.8,0,0,0-.38.4,1.08,1.08,0,0,0-.07,1,8.7,8.7,0,0,0,4.9,5.42A2.49,2.49,0,0,0,27,27.9c.77-.09,1-.93,1.56-1.37a1.46,1.46,0,0,1,1.76-.08c.56.36,1.11.74,1.66,1.13s1.07.76,1.56,1.19a1.24,1.24,0,0,1,.37,1.54,5.2,5.2,0,0,1-2.23,2.45,4.9,4.9,0,0,1-1,.31c-.38-.12.33-.1,0,0ZM40,30a9.74,9.74,0,0,1-6.13,5.87,45,45,0,0,1-9.66.78.24.24,0,0,0-.17.07l-3,3.09L17.8,43.05a.38.38,0,0,1-.65-.26V36.06a.24.24,0,0,0-.19-.23h0A9.69,9.69,0,0,1,10.83,30a32.3,32.3,0,0,1,0-13.84c.6-2.37,3.68-5.32,6.13-5.87a45.15,45.15,0,0,1,16.87,0A9.77,9.77,0,0,1,40,16.12,32.3,32.3,0,0,1,40,30Z"/>
    </g>
  </g>
</svg>
