<svg width="46" height="46" viewBox="0 0 46 46" fill="none" xmlns="http://www.w3.org/2000/svg">
<rect width="46" height="46" rx="10" fill="white"/>
<path fill-rule="evenodd" clip-rule="evenodd" d="M36.4167 46H9.58333C4.29142 46 0 41.7086 0 36.4167V9.58333C0 4.29142 4.29142 0 9.58333 0H36.4167C41.7105 0 46 4.29142 46 9.58333V36.4167C46 41.7086 41.7105 46 36.4167 46ZM34.8718 11.9006C34.0687 11.1608 30.82 8.80325 23.5884 8.77067C23.5884 8.77067 15.0573 8.257 10.9001 12.0712C8.58667 14.3865 7.77208 17.7713 7.68583 21.9727C7.59958 26.174 7.48842 34.0438 15.0746 36.1771L15.0822 36.179L15.0784 39.4354C15.0784 39.4354 15.0305 40.7541 15.8968 41.0224C16.9472 41.3482 17.5643 40.3458 18.5667 39.2667C19.1168 38.6745 19.8758 37.8024 20.4489 37.1373C25.6373 37.5724 29.6278 36.5757 30.0821 36.4282C31.1305 36.087 37.0568 35.328 38.0209 27.4601C39.0157 19.3449 37.5398 14.214 34.8718 11.9006ZM35.7497 26.8736C34.9351 33.4439 30.1281 33.8598 29.2426 34.1435C28.865 34.2642 25.3594 35.1363 20.953 34.8488C20.953 34.8488 17.6678 38.8106 16.6424 39.8418C16.4833 40.0028 16.2955 40.0679 16.169 40.0373C15.9927 39.9932 15.9428 39.7842 15.9467 39.4795L15.9735 34.0668C9.5565 32.2843 9.93025 25.5856 10.0031 22.0781C10.0759 18.5706 10.7353 15.6956 12.6922 13.7636C16.2092 10.5781 23.4543 11.0534 23.4543 11.0534C29.5723 11.0802 32.5047 12.9241 33.1852 13.5413C35.4411 15.4732 36.5911 20.0982 35.7497 26.8736ZM24.2017 27.2684C24.2017 27.2684 24.7768 27.3183 25.0853 26.9349L25.6891 26.1759C25.9804 25.8002 26.6838 25.5587 27.3719 25.9421C28.2823 26.4557 29.4611 27.2646 30.268 28.0178C30.7127 28.3935 30.8162 28.9455 30.5133 29.5282L30.5095 29.5397C30.199 30.0917 29.7812 30.6072 29.2541 31.0864L29.2426 31.096C28.6503 31.5905 27.968 31.878 27.2378 31.6403L27.2243 31.6212C25.9153 31.2512 22.7738 29.6489 20.7709 28.0523C17.4953 25.4667 15.1685 21.2041 14.5226 18.9194L14.5034 18.906C14.2657 18.1738 14.5552 17.4915 15.0477 16.9012L15.0573 16.8897C15.5384 16.3626 16.054 15.9467 16.6041 15.6342L16.6156 15.6323C17.1982 15.3276 17.7502 15.4311 18.1259 15.8757C18.6204 16.3875 19.55 17.6161 20.2017 18.7718C20.585 19.4599 20.3454 20.1633 19.9678 20.4547L19.2088 21.0584C18.8255 21.367 18.8753 21.942 18.8753 21.942C18.8753 21.942 19.9985 26.1951 24.2017 27.2684ZM30.8162 23.7417C31.0423 23.7398 31.2244 23.5558 31.2225 23.3297C31.2014 20.6387 30.3772 18.4786 28.773 16.9127C27.1726 15.3525 25.1562 14.5533 22.7815 14.536H22.7796C22.5553 14.536 22.3713 14.7162 22.3694 14.9423C22.3694 15.1685 22.5496 15.3525 22.7758 15.3544C24.932 15.3697 26.7586 16.0904 28.2018 17.4992C29.6451 18.906 30.3849 20.8706 30.4041 23.3373C30.406 23.5616 30.5881 23.7417 30.8123 23.7417H30.8162ZM28.6637 22.9023H28.6542C28.428 22.8965 28.2497 22.7106 28.2555 22.4844C28.2862 21.0852 27.8875 19.9544 27.0346 19.0229C26.1855 18.0952 25.0202 17.5873 23.4696 17.4742C23.2453 17.457 23.0748 17.2615 23.092 17.0372C23.1093 16.8111 23.3048 16.6424 23.529 16.6577C25.2732 16.7862 26.6551 17.3957 27.6383 18.4709C28.6254 19.5481 29.1084 20.9051 29.072 22.5017C29.0682 22.7259 28.8861 22.9023 28.6637 22.9023ZM26.565 22.1988C26.3484 22.1988 26.1682 22.0282 26.1567 21.8097C26.0877 20.4221 25.4342 19.7417 24.0982 19.6707C23.874 19.6573 23.6996 19.4657 23.713 19.2395C23.7245 19.0152 23.9162 18.8408 24.1423 18.8542C25.9037 18.9482 26.8832 19.9563 26.9732 21.7695C26.9847 21.9957 26.8123 22.1873 26.5861 22.1988H26.565Z" fill="#7C20D8"/>
</svg>
