<svg xmlns="http://www.w3.org/2000/svg" width="11.72mm" height="11.72mm" viewBox="0 0 33.22 33.23">
  <defs>
    <style>
      .cls-1 {
        fill: #3b3b3a;
        fill-rule: evenodd;
      }
    </style>
  </defs>
  <title>Ресурс 1</title>
  <g id="Слой_2" data-name="Слой 2">
    <g id="Слой_1-2" data-name="Слой 1">
      <path class="cls-1" d="M0,33.23H33.22V0H0V33.23ZM8.61,10.11a21.67,21.67,0,0,0,3.13,5.49,3.1,3.1,0,0,0,.63.57c.35.24.67.16.81-.23a7.39,7.39,0,0,0,.29-1.68c0-1.12,0-1.86-.07-3a1.45,1.45,0,0,0-1.35-1.54c-.33-.06-.36-.33-.15-.6a2.07,2.07,0,0,1,1.71-.68c1.07-.06,2.15,0,3.22,0a6.4,6.4,0,0,1,1.31.13,1.19,1.19,0,0,1,.95,1.07,4.88,4.88,0,0,1,.07.85c0,1.23-.09,2.46-.1,3.69a6.42,6.42,0,0,0,.13,1.45c.14.65.59.82,1,.34a16.56,16.56,0,0,0,1.56-2,19.72,19.72,0,0,0,2.08-4c.29-.73.51-.89,1.3-.89H29.6a2.88,2.88,0,0,1,.78.1.68.68,0,0,1,.47.87,7.37,7.37,0,0,1-1.31,2.59c-.9,1.28-1.85,2.52-2.77,3.78a5.29,5.29,0,0,0-.32.5,1,1,0,0,0,.19,1.5c.8.82,1.66,1.6,2.43,2.45a12.84,12.84,0,0,1,1.53,2,1.13,1.13,0,0,1-.84,1.88c-.66.1-3.91,0-4.07,0a3.14,3.14,0,0,1-2.26-.9c-.68-.66-1.31-1.38-2-2.07a5.88,5.88,0,0,0-.64-.58c-.54-.41-1.07-.32-1.32.31a13,13,0,0,0-.41,2.09,1.11,1.11,0,0,1-1.16,1.09A10.89,10.89,0,0,1,12,23.58,12.42,12.42,0,0,1,8.1,20.16,41,41,0,0,1,3.76,13c-.07-.13-1.33-2.82-1.37-2.95a.76.76,0,0,1,.36-1C3,9,7.14,9.1,7.21,9.1A1.46,1.46,0,0,1,8.61,10.11Z"/>
    </g>
  </g>
</svg>
