<svg xmlns="http://www.w3.org/2000/svg" width="15.64mm" height="15.64mm" viewBox="0 0 44.33 44.33">
  <defs>
    <style>
      .cls-1 {
        fill: #fc0;
      }

      .cls-2 {
        fill: #3b3b3a;
        fill-rule: evenodd;
      }
    </style>
  </defs>
  <title>vk_icon</title>
  <g id="Слой_2" data-name="Слой 2">
    <g id="Слой_1-2" data-name="Слой 1">
      <g>
        <rect class="cls-1" width="44.33" height="44.33"/>
        <path class="cls-2" d="M12.31,14.16a27.09,27.09,0,0,0,3.86,6.75,3.51,3.51,0,0,0,.78.71.59.59,0,0,0,1-.29,8.46,8.46,0,0,0,.35-2.06c0-1.38,0-2.29-.07-3.68a1.81,1.81,0,0,0-1.67-1.9c-.4-.07-.44-.4-.18-.73a2.55,2.55,0,0,1,2.1-.84c1.32-.07,2.64,0,4,0a7.92,7.92,0,0,1,1.61.16,1.47,1.47,0,0,1,1.17,1.31,6.32,6.32,0,0,1,.09,1.06c0,1.51-.11,3-.13,4.53A8.08,8.08,0,0,0,25.33,21c.18.81.73,1,1.29.43A19.7,19.7,0,0,0,28.55,19a24,24,0,0,0,2.56-5c.35-.89.63-1.09,1.59-1.09h5.44a3.09,3.09,0,0,1,1,.13.83.83,0,0,1,.58,1.07,9,9,0,0,1-1.61,3.18C37,18.87,35.8,20.4,34.66,22c-.14.2-.27.41-.39.62a1.29,1.29,0,0,0,.23,1.84c1,1,2,2,3,3a17.78,17.78,0,0,1,1.89,2.45,1.39,1.39,0,0,1-1,2.32c-.82.12-4.82,0-5,0a3.93,3.93,0,0,1-2.78-1.1c-.84-.82-1.6-1.71-2.41-2.55a7.66,7.66,0,0,0-.79-.72c-.66-.5-1.31-.39-1.62.39a15.09,15.09,0,0,0-.5,2.57,1.38,1.38,0,0,1-1.44,1.33,13.47,13.47,0,0,1-7.27-1.37,15.42,15.42,0,0,1-4.83-4.22,50.44,50.44,0,0,1-5.34-8.78c-.08-.16-1.64-3.47-1.68-3.62a.93.93,0,0,1,.43-1.2c.28-.11,5.41,0,5.49,0A1.76,1.76,0,0,1,12.31,14.16Z"/>
      </g>
    </g>
  </g>
</svg>
