<svg xmlns="http://www.w3.org/2000/svg" width="17.92mm" height="17.92mm" viewBox="0 0 50.79 50.79">
  <defs>
    <style>
      .cls-1 {
        fill: #fc0;
        fill-rule: evenodd;
      }
    </style>
  </defs>
  <title>vk_transparent</title>
  <g id="Слой_2" data-name="Слой 2">
    <g id="Слой_1-2" data-name="Слой 1">
      <path class="cls-1" d="M0,50.79H50.79V0H0V50.79ZM13.16,15.46A33.21,33.21,0,0,0,18,23.84a4.28,4.28,0,0,0,1,.88.72.72,0,0,0,1.22-.36,10.66,10.66,0,0,0,.45-2.56c0-1.72,0-2.85-.1-4.57a2.23,2.23,0,0,0-2.07-2.36c-.5-.09-.55-.5-.23-.91a3.21,3.21,0,0,1,2.62-1.05c1.63-.08,3.28,0,4.92,0a9.64,9.64,0,0,1,2,.21,1.84,1.84,0,0,1,1.46,1.62,7.34,7.34,0,0,1,.1,1.32c-.05,1.88-.14,3.76-.16,5.63a10.16,10.16,0,0,0,.2,2.21c.22,1,.91,1.26,1.6.53a23.2,23.2,0,0,0,2.4-3,30.19,30.19,0,0,0,3.18-6.16c.44-1.12.78-1.36,2-1.36h6.76a3.93,3.93,0,0,1,1.19.16,1,1,0,0,1,.71,1.33,11.2,11.2,0,0,1-2,4c-1.38,1.94-2.83,3.84-4.24,5.77a5.52,5.52,0,0,0-.48.77,1.59,1.59,0,0,0,.28,2.28c1.22,1.27,2.53,2.45,3.72,3.75a21.65,21.65,0,0,1,2.34,3c.87,1.36.33,2.65-1.28,2.87-1,.15-6,0-6.24,0a4.8,4.8,0,0,1-3.44-1.37c-1-1-2-2.12-3-3.17a8.19,8.19,0,0,0-1-.89,1.18,1.18,0,0,0-2,.48,19,19,0,0,0-.62,3.2,1.7,1.7,0,0,1-1.78,1.65,16.74,16.74,0,0,1-9-1.7,19,19,0,0,1-6-5.24A63.37,63.37,0,0,1,5.74,19.9c-.1-.2-2-4.31-2.08-4.5a1.17,1.17,0,0,1,.54-1.49c.34-.13,6.71,0,6.82,0A2.21,2.21,0,0,1,13.16,15.46Z"/>
    </g>
  </g>
</svg>
