<svg xmlns="http://www.w3.org/2000/svg" width="21.3mm" height="12.24mm" viewBox="0 0 60.38 34.69">
  <defs>
    <style>
      .cls-1 {
        fill: #3b3b3a;
        fill-rule: evenodd;
      }
    </style>
  </defs>
  <title>vk_wo_bg</title>
  <g id="Слой_2" data-name="Слой 2">
    <g id="Слой_1-2" data-name="Слой 1">
      <path class="cls-1" d="M13.24,3.58a46.47,46.47,0,0,0,6.64,11.61,6,6,0,0,0,1.34,1.23,1,1,0,0,0,1.7-.51,14.28,14.28,0,0,0,.61-3.54c0-2.39,0-3.95-.13-6.33a3.1,3.1,0,0,0-2.87-3.27c-.69-.12-.76-.69-.31-1.26C21.14.32,22.44.13,23.84.06c2.26-.12,4.54,0,6.81,0a13.56,13.56,0,0,1,2.77.28,2.52,2.52,0,0,1,2,2.25,10.15,10.15,0,0,1,.14,1.82c-.06,2.61-.18,5.21-.21,7.81a13.07,13.07,0,0,0,.28,3.06C36,16.67,36.9,17,37.86,16a33.18,33.18,0,0,0,3.32-4.15,41.58,41.58,0,0,0,4.4-8.54c.61-1.54,1.08-1.88,2.74-1.88q4.68,0,9.37,0a5.39,5.39,0,0,1,1.65.22,1.43,1.43,0,0,1,1,1.84A15.59,15.59,0,0,1,57.56,9c-1.91,2.7-3.91,5.33-5.86,8A12.05,12.05,0,0,0,51,18a2.2,2.2,0,0,0,.39,3.16c1.7,1.75,3.51,3.39,5.16,5.19a30.7,30.7,0,0,1,3.24,4.22c1.2,1.89.46,3.67-1.78,4-1.4.2-8.28,0-8.63,0a6.74,6.74,0,0,1-4.77-1.9c-1.45-1.4-2.77-2.93-4.16-4.39a12.08,12.08,0,0,0-1.35-1.23c-1.14-.87-2.26-.68-2.79.66a25.5,25.5,0,0,0-.87,4.43A2.36,2.36,0,0,1,33,34.46,23.19,23.19,0,0,1,20.48,32.1a26.42,26.42,0,0,1-8.3-7.26A87.29,87.29,0,0,1,3,9.73C2.84,9.46.16,3.77.09,3.5A1.61,1.61,0,0,1,.84,1.44c.47-.18,9.29,0,9.44,0A3.07,3.07,0,0,1,13.24,3.58Z"/>
    </g>
  </g>
</svg>
