<svg xmlns="http://www.w3.org/2000/svg" width="15.64mm" height="15.64mm" viewBox="0 0 44.33 44.33">
  <defs>
    <style>
      .cls-1, .cls-3 {
        fill: #fc0;
      }

      .cls-2 {
        fill: #3b3b3a;
      }

      .cls-2, .cls-3 {
        fill-rule: evenodd;
      }
    </style>
  </defs>
  <title>whatsapp_icon</title>
  <g id="Слой_2" data-name="Слой 2">
    <g id="Слой_1-2" data-name="Слой 1">
      <g>
        <rect class="cls-1" width="44.33" height="44.33"/>
        <path class="cls-2" d="M5.42,38.92l2.35-8.33A16.69,16.69,0,1,1,14,36.71Z"/>
        <path class="cls-3" d="M14.45,33.67,15,34a13.88,13.88,0,1,0-4.47-4.37l.35.54L9.49,35Z"/>
        <path class="cls-2" d="M17.49,14.34l-1.09-.06a1.32,1.32,0,0,0-.93.32,4.88,4.88,0,0,0-1.62,2.49c-.39,1.72.21,3.82,1.75,5.92a17.62,17.62,0,0,0,9.49,6.9A4.6,4.6,0,0,0,29,29.42a3.51,3.51,0,0,0,1.53-2.22l.17-.81a.57.57,0,0,0-.32-.63l-3.66-1.69a.56.56,0,0,0-.68.17L24.6,26.11a.41.41,0,0,1-.46.13A11.27,11.27,0,0,1,18,21a.43.43,0,0,1,.06-.46L19.46,19a.58.58,0,0,0,.1-.59L18,14.68A.56.56,0,0,0,17.49,14.34Z"/>
      </g>
    </g>
  </g>
</svg>
