<svg xmlns="http://www.w3.org/2000/svg" width="17.92mm" height="17.92mm" viewBox="0 0 50.79 50.79">
  <defs>
    <style>
      .cls-1 {
        fill: #fc0;
        fill-rule: evenodd;
      }
    </style>
  </defs>
  <title>whatapp_transparent</title>
  <g id="Слой_2" data-name="Слой 2">
    <g id="Слой_1-2" data-name="Слой 1">
      <path class="cls-1" d="M0,50.79H50.79V0H0V50.79ZM6.21,44.6,8.9,35.06a19.18,19.18,0,1,1,7.15,7L6.21,44.6ZM20,16.43a.65.65,0,0,1,.55.39l1.82,4.24a.65.65,0,0,1-.11.67l-1.58,1.83a.49.49,0,0,0-.06.53,12.94,12.94,0,0,0,7,6,.47.47,0,0,0,.53-.16l1.65-2.14a.67.67,0,0,1,.78-.19l4.2,1.94a.62.62,0,0,1,.36.72l-.19.93a4,4,0,0,1-1.75,2.54,5.3,5.3,0,0,1-4.49.56,20.15,20.15,0,0,1-10.87-7.91c-1.77-2.4-2.45-4.81-2-6.78a5.62,5.62,0,0,1,1.87-2.85,1.47,1.47,0,0,1,1.06-.37l1.25.07ZM16.56,38.58,10.87,40l1.55-5.49-.4-.62a15.89,15.89,0,1,1,5.12,5Z"/>
    </g>
  </g>
</svg>
