<svg width="46" height="46" viewBox="0 0 46 46" fill="none" xmlns="http://www.w3.org/2000/svg">
<rect width="46" height="46" rx="10" fill="white"/>
<path d="M23.069 10.2331C16.1019 10.2331 10.4362 15.8988 10.4324 22.862C10.4305 25.7044 11.2642 27.8338 12.6634 30.061L11.3869 34.7223L16.1671 33.4688C18.308 34.7396 20.3531 35.5024 23.0575 35.5024C30.0188 35.5024 35.6903 29.8367 35.6922 22.8716C35.6979 15.893 30.0533 10.235 23.069 10.2331ZM30.498 28.2938C30.1817 29.1812 28.6637 29.9901 27.9354 30.0993C27.2818 30.1971 26.4538 30.2373 25.5434 29.9498C24.9914 29.7754 24.2842 29.5416 23.3795 29.1506C19.5711 27.5061 17.0833 23.6708 16.8935 23.4178C16.7038 23.1648 15.3429 21.3593 15.3429 19.4906C15.3429 17.6218 16.3242 16.7037 16.6712 16.3223C17.02 15.939 17.4302 15.8432 17.6832 15.8432L18.4115 15.8566C18.6453 15.8681 18.9578 15.7684 19.2663 16.5082C19.5826 17.2692 20.3416 19.1379 20.4374 19.3277C20.5313 19.5174 20.5965 19.7397 20.4681 19.9927C20.3416 20.2457 20.2783 20.4048 20.0886 20.6252L19.5193 21.2903C19.3296 21.4801 19.1322 21.6852 19.3526 22.0647C19.5749 22.4442 20.3358 23.6881 21.4648 24.6943C22.9157 25.9881 24.1385 26.3887 24.518 26.5784C24.8975 26.7682 25.1198 26.7375 25.3402 26.4826C25.5626 26.2296 26.289 25.3748 26.542 24.9933C26.795 24.6119 27.048 24.6771 27.3968 24.8036C27.7457 24.9301 29.6125 25.8482 29.992 26.0398C30.3715 26.2296 30.6245 26.3254 30.7203 26.4826C30.8142 26.6455 30.8142 27.4064 30.498 28.2938ZM36.4167 0H9.58333C4.29142 0 0 4.29142 0 9.58333V36.4167C0 41.7086 4.29142 46 9.58333 46H36.4167C41.7105 46 46 41.7086 46 36.4167V9.58333C46 4.29142 41.7105 0 36.4167 0ZM23.0632 38.0688C20.5198 38.0688 18.0147 37.4306 15.7952 36.2192L7.7395 38.3333L9.89575 30.4597C8.56558 28.1558 7.866 25.5415 7.86792 22.862C7.87175 14.4823 14.6874 7.66667 23.0632 7.66667C27.1285 7.66858 30.9446 9.25175 33.8138 12.1229C36.6831 14.9941 38.2624 18.814 38.2605 22.8735C38.2567 31.2532 31.4391 38.0688 23.0632 38.0688Z" fill="#00C850"/>
</svg>
