<svg xmlns="http://www.w3.org/2000/svg" width="27.67mm" height="23.27mm" viewBox="0 0 78.44 65.97">
  <defs>
    <style>
      .cls-1 {
        fill: #fff;
        fill-rule: evenodd;
      }
    </style>
  </defs>
  <title>white_logo</title>
  <g id="Слой_2" data-name="Слой 2">
    <g id="Слой_1-2" data-name="Слой 1">
      <path class="cls-1" d="M69.43,1,61.25,9a1.77,1.77,0,0,0,0,2.49l5.29,5.45a1.77,1.77,0,0,0,2.49,0l8.4-8.16C81.67,19.35,72,29.37,61.53,26.67v0c-8.07,7.85-16.08,15.77-24.21,23.56-3.39,3.25-8.36,4.42-12.73.22-3.08-3-4.88-4.77-7.93-7.75V66H0v-43c0-5.74,6.54-9.69,12-4.51,6.44,6.08,12.35,12,18.52,17.92l21-21.09C49.05,5,59.8-2.9,69.43,1ZM61.35,66V32.28L44.57,48.45V66Z"/>
    </g>
  </g>
</svg>
